<?xml version="1.0" encoding="UTF-8" standalone="no"?>
<svg
   xmlns:dc="http://purl.org/dc/elements/1.1/"
   xmlns:cc="http://creativecommons.org/ns#"
   xmlns:rdf="http://www.w3.org/1999/02/22-rdf-syntax-ns#"
   xmlns:svg="http://www.w3.org/2000/svg"
   xmlns="http://www.w3.org/2000/svg"
   xmlns:sodipodi="http://sodipodi.sourceforge.net/DTD/sodipodi-0.dtd"
   xmlns:inkscape="http://www.inkscape.org/namespaces/inkscape"
   t="1583458326529"
   class="icon"
   viewBox="0 0 805.72281 817.8"
   version="1.1"
   p-id="7012"
   width="157.36774"
   height="159.72656"
   id="svg958"
   sodipodi:docname="crosswalk.svg"
   inkscape:version="0.92.3 (2405546, 2018-03-11)">
  <metadata
     id="metadata962">
    <rdf:RDF>
      <cc:Work
         rdf:about="">
        <dc:format>image/svg+xml</dc:format>
        <dc:type
           rdf:resource="http://purl.org/dc/dcmitype/StillImage" />
      </cc:Work>
    </rdf:RDF>
  </metadata>
  <sodipodi:namedview
     pagecolor="#ffffff"
     bordercolor="#666666"
     borderopacity="1"
     objecttolerance="10"
     gridtolerance="10"
     guidetolerance="10"
     inkscape:pageopacity="0"
     inkscape:pageshadow="2"
     inkscape:window-width="1853"
     inkscape:window-height="1007"
     id="namedview960"
     showgrid="false"
     inkscape:zoom="1.18"
     inkscape:cx="78.205349"
     inkscape:cy="82.1875"
     inkscape:window-x="67"
     inkscape:window-y="40"
     inkscape:window-maximized="1"
     inkscape:current-layer="svg958" />
  <defs
     id="defs952">
    <style
       type="text/css"
       id="style950" />
  </defs>
  <g
     id="g1509"
     style="fill:#6f7c91;fill-opacity:1"
     transform="translate(-111.58861,-115)">
    <path
       id="path954"
       p-id="7013"
       d="m 729.7,453.6 1,0.2 c 3.7,11.4 1.9,23.8 -4.7,33.8 -6.7,10 -17.5,16.4 -29.4,17.3 -6.1,-0.1 -12.1,-1.9 -17.3,-5.1 l -52.4,-27.9 17.7,-72.1 68,34.1 c 8.1,4 14.3,11.1 17.1,19.7 z M 606.5,115 c 42.7,0 77.3,34.6 77.3,77.3 -0.6,42.1 -35.1,75.9 -77.3,75.5 -42.1,0.4 -76.7,-33.4 -77.3,-75.5 0,-42.8 34.7,-77.3 77.3,-77.3 z M 178.2,932.2 h -58.6 c -7.9,0 -10.4,-2.8 -5.5,-6.4 43,-32 86.1,-63.9 129.2,-96 4.8,-3.5 12.8,-6.4 17.8,-6.4 h 37.6 c 5.1,0 6,2.9 2.3,6.4 -33.9,32 -67.8,63.9 -101.7,96 -3.8,3.5 -13.2,6.4 -21.1,6.4 z m 196.4,-6.4 c -1.7,3.5 -9.3,6.4 -17.2,6.4 h -58.6 c -7.9,0 -12.1,-2.8 -9.3,-6.4 24.2,-32 48.4,-63.9 72.6,-96 2.7,-3.5 9,-6.4 14,-6.4 h 37.6 c 5,0 7.7,2.9 6,6.4 -15,32.1 -30.1,64 -45.1,96 z m 36.3,-142.9 c -3,0.3 -6.1,0.3 -9.1,0 -9.1,0.1 -17.8,-2.7 -25.2,-7.8 -9.3,-5.6 -16,-14.9 -18.4,-25.5 -2.8,-10.4 -1.2,-21.6 4.8,-30.7 l 68,-96.2 c 4.6,-5.8 8.2,-12.3 10.9,-19.1 l 34.1,-100 7.5,15 c 11.9,23.2 30,42.4 52.4,55.8 l 5.1,2.7 -18.7,52.1 c -5.4,13.6 -12.2,26.7 -20,39.1 L 438,763.6 c -6.1,9.8 -15.8,16.9 -27.1,19.3 z M 538.5,932 h -58.6 c -7.8,0 -13.7,-2.8 -13.1,-6.4 5.1,-32 10.2,-63.9 15.3,-96 0.6,-3.5 5.2,-6.4 10.1,-6.4 h 37.6 c 5,0 9.4,2.9 9.9,6.4 4.1,32 8.2,63.9 12.3,96 0.4,3.5 -5.6,6.4 -13.5,6.4 z"
       style="fill:#6f7c91;fill-opacity:1"
       inkscape:connector-curvature="0" />
    <path
       id="path956"
       p-id="7014"
       d="m 569.4,584.6 -2.7,-1.7 C 479,535.6 473.6,475 484.8,433.5 L 496,385 l -13,12.2 -44.9,94.2 c -10,17.5 -31.8,24.4 -50,15.7 -8.9,-3.5 -15.8,-10.6 -19.2,-19.6 -3.4,-8.9 -2.8,-18.9 1.5,-27.3 L 414.6,367 c 2.9,-5.7 6.6,-11.1 10.9,-16 l 76.9,-73.2 c 11.4,-9.8 26.4,-14.2 41.2,-12.3 7.9,0 15.7,1.3 23.2,3.7 49,12.6 79.2,61.9 68,111.2 l -19.1,76.9 -4.4,22.1 5.7,8.5 2,3.4 59.6,108.5 c 6.1,10.7 10.8,22.3 13.6,34.3 l 16.7,115 c 2,12.2 -1.2,24.5 -8.9,34.1 -7.4,8.4 -17.5,13.7 -28.6,15 H 666 c -9.2,0.1 -18.2,-2.6 -25.9,-7.8 -9.3,-6 -15.6,-15.9 -17,-26.9 -5.2,-44.7 -14.4,-88.8 -27.5,-131.7 z m 156.5,347.5 h -58.6 c -7.9,0 -15.7,-2.8 -17.2,-6.4 -14.7,-32 -29.3,-63.9 -44,-95.9 -1.7,-3.5 1.2,-6.4 6.1,-6.4 h 37.6 c 5,0 11.2,2.9 14.1,6.4 23.7,32 47.6,63.9 71.4,95.9 2.7,3.5 -1.5,6.4 -9.4,6.4 z m 183.4,0.7 h -58.8 c -7.9,0 -17.4,-2.8 -21.1,-6.4 -33.9,-32 -67.8,-63.9 -101.7,-95.9 -3.7,-3.5 -2.6,-6.4 2.3,-6.4 h 37.7 c 5,0 13,2.9 17.9,6.4 43,32 86.1,63.9 129.2,95.9 4.9,3.5 2.4,6.4 -5.5,6.4 z"
       style="fill:#6f7c91;fill-opacity:1"
       inkscape:connector-curvature="0" />
  </g>
</svg>
