<?xml version="1.0" encoding="UTF-8" standalone="no"?>
<svg
   xmlns:dc="http://purl.org/dc/elements/1.1/"
   xmlns:cc="http://creativecommons.org/ns#"
   xmlns:rdf="http://www.w3.org/1999/02/22-rdf-syntax-ns#"
   xmlns:svg="http://www.w3.org/2000/svg"
   xmlns="http://www.w3.org/2000/svg"
   xmlns:sodipodi="http://sodipodi.sourceforge.net/DTD/sodipodi-0.dtd"
   xmlns:inkscape="http://www.inkscape.org/namespaces/inkscape"
   t="1583458196707"
   class="icon"
   viewBox="0 0 976.03203 766.89"
   version="1.1"
   p-id="5498"
   width="190.63126"
   height="149.7832"
   id="svg892"
   sodipodi:docname="road_side.svg"
   inkscape:version="0.92.3 (2405546, 2018-03-11)">
  <metadata
     id="metadata896">
    <rdf:RDF>
      <cc:Work
         rdf:about="">
        <dc:format>image/svg+xml</dc:format>
        <dc:type
           rdf:resource="http://purl.org/dc/dcmitype/StillImage" />
      </cc:Work>
    </rdf:RDF>
  </metadata>
  <sodipodi:namedview
     pagecolor="#ffffff"
     bordercolor="#666666"
     borderopacity="1"
     objecttolerance="10"
     gridtolerance="10"
     guidetolerance="10"
     inkscape:pageopacity="0"
     inkscape:pageshadow="2"
     inkscape:window-width="1853"
     inkscape:window-height="1007"
     id="namedview894"
     showgrid="false"
     inkscape:zoom="3.85"
     inkscape:cx="95.554008"
     inkscape:cy="75.103711"
     inkscape:window-x="67"
     inkscape:window-y="40"
     inkscape:window-maximized="1"
     inkscape:current-layer="svg892" />
  <defs
     id="defs888">
    <style
       type="text/css"
       id="style886" />
  </defs>
  <path
     d="m 155.16652,92.236 c 7.155,-20.951 13.925,-37.559 20.44,-49.823 6.516,-12.264 13.542,-21.334 20.952,-27.211 7.537,-6.004 15.969,-9.837 25.295,-11.498 9.326,-1.788 20.823,-2.938 34.365,-3.704 h 124.813 l -124.813,763.824 H 91.674523 c -44.457,0 -72.69,-15.202 -84.4430001,-45.735 -11.881,-30.405 -9.07,-73.585 8.0480001,-129.54 5.749,-18.268 12.52,-41.135 20.44,-68.73 7.92,-27.594 16.352,-57.36 25.295,-89.17 9.326,-32.832 18.268,-65.664 26.955,-98.624 a 7800.344,7800.344 0 0 1 26.316997,-97.09 c 8.687,-30.789 16.352,-58.639 23.123,-83.422 6.771,-24.912 12.648,-44.586 17.758,-59.277 z m 369.074,36.665 h -78.567 l 6.387,-128.007 h 64.515 z m 14.947,318.994 h -108.717 l 11.881,-254.991 h 84.955 l 11.88,254.991 z m 2.171,64.004 11.881,254.991 h -137.715 l 11.88,-254.991 z m 420.685,89.17 c 4.983,15.33 8.943,32.577 11.881,51.484 2.81,18.907 2.81,36.537 0,53.017 -2.81,16.352 -9.581,30.277 -19.93,41.39 -10.475,11.115 -26.06,16.864 -46.884,16.864 h -195.842 L 585.43352,0 h 101.05 c 35.899,0 65.92,7.665 90.321,23.123 24.4,15.33 43.052,43.052 55.955,82.91 4.344,12.52 9.71,32.193 16.097,58.766 l 23.634,90.192 c 8.559,33.599 17.374,68.475 26.316,104.884 8.943,36.281 17.375,70.646 25.295,102.84 l 22.612,86.104 c 6.77,25.04 11.753,42.413 15.33,52.25 z m 0,0"
     p-id="5499"
     id="path890"
     style="fill:#6f7c91"
     inkscape:connector-curvature="0" />
</svg>
