<?xml version="1.0" standalone="no"?><!DOCTYPE svg PUBLIC "-//W3C//DTD SVG 1.1//EN" "http://www.w3.org/Graphics/SVG/1.1/DTD/svg11.dtd"><svg t="1563257687087" class="icon" viewBox="0 0 1152 1024" version="1.1" xmlns="http://www.w3.org/2000/svg" p-id="19224" xmlns:xlink="http://www.w3.org/1999/xlink" width="225" height="200"><defs><style type="text/css"></style></defs><path d="M176 192h560v80H176V192z m377.6 240C531.2 455.232 512 482.368 496.768 512H176V432h377.6z m-96 244.032c0 25.6 2.368 51.2 8 75.968H176V672h281.6v4.032zM16 32v960h630.4a334.592 334.592 0 0 1-100.032-80H113.664V112h684.8v204.8c6.4-0.832 12.8-0.832 19.136-0.832 27.264 0 52.8 3.2 78.4 8.832V32H16z m854.784 459.52l151.04 152.96 0.192 0.128 5.44 5.568c4.8 4.928 6.336 12.16 5.376 19.84 0 1.024 0.512 1.856 0.512 2.88 0 1.024-0.448 1.856-0.576 2.88 0.832 7.808-0.768 14.976-5.632 19.84l-5.632 5.376-0.064 0.192-152.896 151.04c-11.008 10.816-32.384 6.784-48.064-8.896-15.488-15.744-19.2-37.12-8.32-48l84.48-83.2-223.424-1.6a40 40 0 0 1 0.512-80l223.36 1.536-83.2-84.416c-10.752-10.88-6.784-32.384 8.832-48 15.68-15.36 37.12-19.008 48.064-8.128z m26.816-125.12H896a281.088 281.088 0 0 0-78.4-10.368c-5.504 0-11.904 0-17.6 0.768h-1.6A312.64 312.64 0 0 0 611.2 432c-1.6 1.6-3.2 2.368-4.8 4.032-25.6 21.568-46.4 47.168-63.168 75.968-0.832 1.6-1.6 2.368-2.432 4.032a323.264 323.264 0 0 0-43.2 155.968v4.032c0 26.368 3.2 51.968 9.6 75.968 0 1.6 0.832 2.368 0.832 4.032 15.168 61.568 48.768 115.2 94.336 155.968l4.032 4.032a314.816 314.816 0 0 0 164.032 75.968c15.168 2.432 31.232 4.032 47.168 4.032l80-10.432a319.232 319.232 0 0 0 240-309.632 319.36 319.36 0 0 0-240-309.568z m0 564.032H896c-64 19.84-133.184 14.72-193.536-14.528a28.16 28.16 0 0 1-7.296-3.904 263.744 263.744 0 0 1-144-236.032c0-59.968 20.032-115.2 53.632-160 25.6-34.368 59.2-61.568 97.6-80a262.848 262.848 0 0 1 97.6-25.6c5.632-0.768 12.032-0.768 17.6-0.768 28.096 0 54.464 4.032 80 12.032a267.2 267.2 0 0 1 186.368 254.336 267.264 267.264 0 0 1-186.368 254.464z" fill="#1889d4" p-id="19225"></path></svg>
