<?xml version="1.0" standalone="no"?><!DOCTYPE svg PUBLIC "-//W3C//DTD SVG 1.1//EN" "http://www.w3.org/Graphics/SVG/1.1/DTD/svg11.dtd"><svg t="1563254820563" class="icon" viewBox="0 0 1024 1024" version="1.1" xmlns="http://www.w3.org/2000/svg" p-id="3273" xmlns:xlink="http://www.w3.org/1999/xlink" width="200" height="200"><defs><style type="text/css"></style></defs><path d="M0 0v1024h1024V0z m844.8 768a76.8 76.8 0 0 1-76.8 76.8H256A76.8 76.8 0 0 1 179.2 768V256A76.8 76.8 0 0 1 256 179.2h512A76.8 76.8 0 0 1 844.8 256z" fill="#1889d4" p-id="3274"></path><path d="M768 230.4H256a25.6 25.6 0 0 0-25.6 25.6v512a25.6 25.6 0 0 0 25.6 25.6h512a25.6 25.6 0 0 0 25.6-25.6V256a25.6 25.6 0 0 0-25.6-25.6z m-77.824 321.024h-138.24v138.24a39.424 39.424 0 1 1-79.36 0v-138.24H333.824a39.424 39.424 0 0 1 0-79.36h138.24v-138.24a39.424 39.424 0 0 1 79.36 0v138.24h138.24a39.424 39.424 0 1 1 0 79.36z" fill="#1889d4" p-id="3275"></path></svg>
