<?xml version="1.0" standalone="no"?><!DOCTYPE svg PUBLIC "-//W3C//DTD SVG 1.1//EN" "http://www.w3.org/Graphics/SVG/1.1/DTD/svg11.dtd"><svg t="1563254788719" class="icon" viewBox="0 0 1024 1024" version="1.1" xmlns="http://www.w3.org/2000/svg" p-id="3162" xmlns:xlink="http://www.w3.org/1999/xlink" width="200" height="200"><defs><style type="text/css"></style></defs><path d="M802.84 947.256c24 0 47.312-15.52 57.568-36.696l157.384-524.816c11.936-22.984-5.432-49.688-36.672-49.688H833.152v-90.264c0-31.16-25.36-56.504-56.504-56.504h-493.56L246.464 93.16a25.776 25.776 0 0 0-24.072-16.584H28.664a25.853 25.853 0 0 0-18.28 7.592 25.856 25.856 0 0 0-7.488 18.32l0.496 143.296-0.984 645.136a56.568 56.568 0 0 0 56.504 56.504l750.456-0.168M781.64 336.088H309.504c-20.264 0-39.424 16.368-49.568 36.68L80.432 895.912H58.92a5 5 0 0 1-4.984-4.984v-645.28l-0.024-117.536H204.64l36.624 96.12a25.776 25.776 0 0 0 24.08 16.592h511.32c2.736 0 4.984 2.24 4.984 4.976l-0.008 90.288z" fill="#1889d4" p-id="3163"></path></svg>
