<?xml version="1.0" encoding="UTF-8"?>
<svg width="21px" height="21px" viewBox="0 0 21 21" version="1.1" xmlns="http://www.w3.org/2000/svg" xmlns:xlink="http://www.w3.org/1999/xlink">
    <!-- Generator: Sketch 52.5 (67469) - http://www.bohemiancoding.com/sketch -->
    <title>分组 5</title>
    <desc>Created with Sketch.</desc>
    <g id="stella" stroke="none" stroke-width="1" fill="none" fill-rule="evenodd">
        <g id="05-操作主页" transform="translate(-30.000000, -25.000000)" fill-rule="nonzero">
            <g id="分组-2" transform="translate(30.000000, 21.000000)">
                <g id="分组-5" transform="translate(0.000000, 4.000000)">
                    <g id="形状-2" transform="translate(1.000000, 0.000000)" fill="#D4EFFF">
                        <path d="M0,13.3333333 L2.22222221,13.3333333 L2.22222221,20 L0,20 L0,13.3333333 Z M4.44444445,10 L6.66666667,10 L6.66666667,20 L4.44444445,20 L4.44444445,10 Z M8.88888888,6.66666667 L11.1111111,6.66666667 L11.1111111,20 L8.88888888,20 L8.88888888,6.66666667 Z M13.3333333,3.33333333 L15.5555555,3.33333333 L15.5555555,20 L13.3333333,20 L13.3333333,3.33333333 Z M17.7777778,0 L20,0 L20,20 L17.7777778,20 L17.7777778,0 Z" id="形状"></path>
                    </g>
                    <polygon id="矩形" fill="#0097FF" points="0.974884994 13.342191 3.21224095 13.342191 3.21224095 20 0.974884994 20"></polygon>
                    <polygon id="矩形" fill="#0097FF" points="5.41933177 10.0071502 7.65668773 10.0071502 7.65668773 20.012152 5.41933177 20.012152"></polygon>
                </g>
            </g>
        </g>
    </g>
</svg>