<?xml version="1.0" encoding="UTF-8"?>
<svg width="57px" height="57px" viewBox="0 0 57 57" version="1.1" xmlns="http://www.w3.org/2000/svg" xmlns:xlink="http://www.w3.org/1999/xlink">
    <!-- Generator: Sketch 52.5 (67469) - http://www.bohemiancoding.com/sketch -->
    <title>分组 20</title>
    <desc>Created with Sketch.</desc>
    <defs>
        <linearGradient x1="38.2573439%" y1="-273.455869%" x2="58.4547732%" y2="168.243099%" id="linearGradient-1">
            <stop stop-color="#0973FF" offset="0%"></stop>
            <stop stop-color="#09B2FF" offset="100%"></stop>
        </linearGradient>
    </defs>
    <g id="stella" stroke="none" stroke-width="1" fill="none" fill-rule="evenodd">
        <g id="05-操作主页" transform="translate(-30.000000, -651.000000)" fill-rule="nonzero">
            <g id="分组-20" transform="translate(30.000000, 651.000000)">
                <rect id="矩形" stroke="#09A1FF" stroke-width="1.122" opacity="0.542736235" x="0.561" y="0.783952258" width="54.978" height="54.978" rx="6.732"></rect>
                <g id="quchezhidongqi-copy" transform="translate(2.000000, 4.000000)">
                    <path d="M0,25.4059805 C-2.3341988e-07,34.4826632 4.82487783,42.869864 12.6571493,47.4082055 C20.4894207,51.9465469 30.1391771,51.9465469 37.9714485,47.4082055 C45.80372,42.869864 50.628598,34.4826632 50.6285978,25.4059805 C50.6285978,11.3746449 39.2950001,1.82732169e-15 25.3142989,0 C11.3335977,-1.82732169e-15 3.64145502e-15,11.3746449 0,25.4059805 Z" id="路径"></path>
                    <path d="M13.3005753,37.4563388 C6.3556687,28.8025228 6.13125131,20.0663005 12.6337019,11.490086 L13.51267,12.1621479 C7.27131489,20.393887 7.48340961,28.4398481 14.160697,36.7601083 L13.3005753,37.4563388 Z M39.3728607,37.0766297 L38.4364835,36.4877019 C42.2997101,30.2926773 45.7580286,21.9299036 38.1452338,12.1681172 L39.0150687,11.4841166 C47.051473,21.7891142 43.4277409,30.5742561 39.3728607,37.0766297 Z" id="形状" fill="url(#linearGradient-1)" transform="translate(25.863286, 24.470228) rotate(-330.000000) translate(-25.863286, -24.470228) "></path>
                    <g id="分组-7" transform="translate(17.944444, 12.277778)" fill="url(#linearGradient-1)">
                        <path d="M1.00087382,26.2174212 L1.00087382,0.984496535 L10.4671963,0.984496535 C12.1269236,0.984496535 13.4037853,1.0641263 14.2855557,1.22295425 C15.5137281,1.43098433 16.5471432,1.82244338 17.3862299,2.39733144 C18.2193109,2.97847765 18.8880922,3.79203925 19.398794,4.83197374 C19.9037046,5.87190828 20.1587337,7.01585784 20.1587337,8.2698648 C20.1587337,10.4047625 19.477941,12.2215728 18.116141,13.701737 C16.7663525,15.1881593 14.3100076,15.9223069 10.7593323,15.9223069 L4.32676306,15.9223069 L4.32676306,26.2174212 L1.00087382,26.2174212 Z M4.3265486,12.9678051 L10.8078071,12.9678051 C12.9539988,12.9678051 14.4678726,12.5640456 15.3736659,11.7627846 C16.2734534,10.9552653 16.7234544,9.8296587 16.7234544,8.36783748 C16.7234544,7.3156024 16.4619905,6.41032638 15.9270513,5.65783587 C15.3981178,4.90556117 14.6986643,4.40987129 13.8355547,4.16515538 C13.2761635,4.0184122 12.2425339,3.94482476 10.7406717,3.94482482 L4.3265486,3.94482482 L4.3265486,12.9678051 Z" id="形状"></path>
                        <path d="M5.1437573,27.039399 L0.183665127,27.039399 L0.183665127,0.162303021 L10.4671963,0.162303021 C12.1713231,0.162303021 13.5045959,0.246896142 14.4296933,0.413924483 C15.7606067,0.639218453 16.913064,1.07858484 17.846312,1.71799673 C18.7915715,2.37747792 19.5585894,3.30131267 20.1314935,4.46792116 C20.6923861,5.62330804 20.9759425,6.90126867 20.9759424,8.2698648 C20.9759424,10.6147348 20.2155737,12.6302958 18.7158564,14.2602243 C17.1991943,15.9305072 14.5954944,16.7442846 10.7593323,16.7442846 L5.14397176,16.7442846 L5.14397176,27.039399 L5.1437573,27.039399 Z M1.81808252,25.3952277 L3.50933991,25.3952277 L3.50933991,15.1001133 L10.7591178,15.1001133 C14.063558,15.1001133 16.3358701,14.4432217 17.5125648,13.1473498 C18.7441691,11.8085339 19.3413106,10.214428 19.3413106,8.27008061 C19.3413106,7.15375329 19.1133072,6.11856634 18.6641642,5.1930052 C18.217166,4.28254996 17.6298911,3.56825589 16.9203566,3.07321335 C16.1889441,2.57212849 15.2548381,2.22102379 14.1495687,2.03392621 C13.310911,1.88265125 12.0745879,1.80669005 10.4669818,1.80669005 L1.81808252,1.80669005 L1.81808252,25.3952277 Z M10.8078071,13.7899987 L3.50933991,13.7899987 L3.50933991,3.12284707 L10.7406717,3.12284707 C12.3287591,3.12284707 13.4085041,3.20355581 14.04168,3.36972094 C15.1055528,3.67097611 15.9592248,4.27974455 16.5941166,5.18307844 C17.2212867,6.06504825 17.5404486,7.13778419 17.5404486,8.36783748 C17.5404486,10.0614266 16.9943558,11.4099535 15.9176137,12.3763006 C14.8413005,13.3288366 13.1712777,13.7899987 10.8078071,13.7899987 Z M5.1437573,12.1456116 L10.8078071,12.1456116 C12.7292128,12.1456116 14.0837201,11.8089655 14.8340078,11.1453841 C15.5538378,10.4990666 15.9062457,9.58947456 15.9062457,8.36783748 C15.9062457,7.47550933 15.695616,6.74567775 15.2623453,6.13626186 C14.840657,5.53655691 14.3022859,5.15178765 13.6137715,4.95670549 C13.2924648,4.87254395 12.5181542,4.76744991 10.7404572,4.76744991 L5.14354279,4.76744991 L5.14354279,12.1456116 L5.1437573,12.1456116 Z" id="形状"></path>
                    </g>
                </g>
            </g>
        </g>
    </g>
</svg>