<?xml version="1.0" encoding="UTF-8" standalone="no"?>
<svg
   xmlns:dc="http://purl.org/dc/elements/1.1/"
   xmlns:cc="http://creativecommons.org/ns#"
   xmlns:rdf="http://www.w3.org/1999/02/22-rdf-syntax-ns#"
   xmlns:svg="http://www.w3.org/2000/svg"
   xmlns="http://www.w3.org/2000/svg"
   xmlns:sodipodi="http://sodipodi.sourceforge.net/DTD/sodipodi-0.dtd"
   xmlns:inkscape="http://www.inkscape.org/namespaces/inkscape"
   width="57px"
   height="57px"
   viewBox="0 0 57 57"
   version="1.1"
   id="svg178"
   sodipodi:docname="brake_off.svg"
   inkscape:version="0.92.3 (2405546, 2018-03-11)">
  <metadata
     id="metadata182">
    <rdf:RDF>
      <cc:Work
         rdf:about="">
        <dc:format>image/svg+xml</dc:format>
        <dc:type
           rdf:resource="http://purl.org/dc/dcmitype/StillImage" />
      </cc:Work>
    </rdf:RDF>
  </metadata>
  <sodipodi:namedview
     pagecolor="#ffffff"
     bordercolor="#666666"
     borderopacity="1"
     objecttolerance="10"
     gridtolerance="10"
     guidetolerance="10"
     inkscape:pageopacity="0"
     inkscape:pageshadow="2"
     inkscape:window-width="1853"
     inkscape:window-height="1010"
     id="namedview180"
     showgrid="false"
     inkscape:zoom="13.77193"
     inkscape:cx="28.5"
     inkscape:cy="28.5"
     inkscape:window-x="67"
     inkscape:window-y="40"
     inkscape:window-maximized="1"
     inkscape:current-layer="svg178" />
  <!-- Generator: Sketch 52.5 (67469) - http://www.bohemiancoding.com/sketch -->
  <title
     id="title155">分组 20</title>
  <desc
     id="desc157">Created with Sketch.</desc>
  <defs
     id="defs164">
    <linearGradient
       x1="38.2573439%"
       y1="-273.455869%"
       x2="58.4547732%"
       y2="168.243099%"
       id="linearGradient-1">
      <stop
         stop-color="#0973FF"
         offset="0%"
         id="stop159" />
      <stop
         stop-color="#09B2FF"
         offset="100%"
         id="stop161" />
    </linearGradient>
  </defs>
  <g
     id="stella"
     stroke="none"
     stroke-width="1"
     fill="none"
     fill-rule="evenodd">
    <g
       id="05-操作主页"
       transform="translate(-30.000000, -651.000000)"
       fill-rule="nonzero">
      <g
         id="分组-20"
         transform="translate(30.000000, 651.000000)">
        <rect
           id="矩形"
           stroke="#09A1FF"
           stroke-width="1.122"
           opacity="0.542736235"
           x="0.561"
           y="0.783952258"
           width="54.978"
           height="54.978"
           rx="6.732" />
        <g
           id="quchezhidongqi-copy"
           transform="translate(2.000000, 4.000000)">
          <path
             d="M0,25.4059805 C-2.3341988e-07,34.4826632 4.82487783,42.869864 12.6571493,47.4082055 C20.4894207,51.9465469 30.1391771,51.9465469 37.9714485,47.4082055 C45.80372,42.869864 50.628598,34.4826632 50.6285978,25.4059805 C50.6285978,11.3746449 39.2950001,1.82732169e-15 25.3142989,0 C11.3335977,-1.82732169e-15 3.64145502e-15,11.3746449 0,25.4059805 Z"
             id="路径" />
          <path
             d="M13.3005753,37.4563388 C6.3556687,28.8025228 6.13125131,20.0663005 12.6337019,11.490086 L13.51267,12.1621479 C7.27131489,20.393887 7.48340961,28.4398481 14.160697,36.7601083 L13.3005753,37.4563388 Z M39.3728607,37.0766297 L38.4364835,36.4877019 C42.2997101,30.2926773 45.7580286,21.9299036 38.1452338,12.1681172 L39.0150687,11.4841166 C47.051473,21.7891142 43.4277409,30.5742561 39.3728607,37.0766297 Z"
             id="形状"
             fill="url(#linearGradient-1)"
             transform="translate(25.863286, 24.470228) rotate(-330.000000) translate(-25.863286, -24.470228) " />
          <g
             id="分组-7"
             transform="translate(17.944444, 12.277778)"
             fill="url(#linearGradient-1)">
            <path
               d="M1.00087382,26.2174212 L1.00087382,0.984496535 L10.4671963,0.984496535 C12.1269236,0.984496535 13.4037853,1.0641263 14.2855557,1.22295425 C15.5137281,1.43098433 16.5471432,1.82244338 17.3862299,2.39733144 C18.2193109,2.97847765 18.8880922,3.79203925 19.398794,4.83197374 C19.9037046,5.87190828 20.1587337,7.01585784 20.1587337,8.2698648 C20.1587337,10.4047625 19.477941,12.2215728 18.116141,13.701737 C16.7663525,15.1881593 14.3100076,15.9223069 10.7593323,15.9223069 L4.32676306,15.9223069 L4.32676306,26.2174212 L1.00087382,26.2174212 Z M4.3265486,12.9678051 L10.8078071,12.9678051 C12.9539988,12.9678051 14.4678726,12.5640456 15.3736659,11.7627846 C16.2734534,10.9552653 16.7234544,9.8296587 16.7234544,8.36783748 C16.7234544,7.3156024 16.4619905,6.41032638 15.9270513,5.65783587 C15.3981178,4.90556117 14.6986643,4.40987129 13.8355547,4.16515538 C13.2761635,4.0184122 12.2425339,3.94482476 10.7406717,3.94482482 L4.3265486,3.94482482 L4.3265486,12.9678051 Z"
               id="path169" />
            <path
               d="M5.1437573,27.039399 L0.183665127,27.039399 L0.183665127,0.162303021 L10.4671963,0.162303021 C12.1713231,0.162303021 13.5045959,0.246896142 14.4296933,0.413924483 C15.7606067,0.639218453 16.913064,1.07858484 17.846312,1.71799673 C18.7915715,2.37747792 19.5585894,3.30131267 20.1314935,4.46792116 C20.6923861,5.62330804 20.9759425,6.90126867 20.9759424,8.2698648 C20.9759424,10.6147348 20.2155737,12.6302958 18.7158564,14.2602243 C17.1991943,15.9305072 14.5954944,16.7442846 10.7593323,16.7442846 L5.14397176,16.7442846 L5.14397176,27.039399 L5.1437573,27.039399 Z M1.81808252,25.3952277 L3.50933991,25.3952277 L3.50933991,15.1001133 L10.7591178,15.1001133 C14.063558,15.1001133 16.3358701,14.4432217 17.5125648,13.1473498 C18.7441691,11.8085339 19.3413106,10.214428 19.3413106,8.27008061 C19.3413106,7.15375329 19.1133072,6.11856634 18.6641642,5.1930052 C18.217166,4.28254996 17.6298911,3.56825589 16.9203566,3.07321335 C16.1889441,2.57212849 15.2548381,2.22102379 14.1495687,2.03392621 C13.310911,1.88265125 12.0745879,1.80669005 10.4669818,1.80669005 L1.81808252,1.80669005 L1.81808252,25.3952277 Z M10.8078071,13.7899987 L3.50933991,13.7899987 L3.50933991,3.12284707 L10.7406717,3.12284707 C12.3287591,3.12284707 13.4085041,3.20355581 14.04168,3.36972094 C15.1055528,3.67097611 15.9592248,4.27974455 16.5941166,5.18307844 C17.2212867,6.06504825 17.5404486,7.13778419 17.5404486,8.36783748 C17.5404486,10.0614266 16.9943558,11.4099535 15.9176137,12.3763006 C14.8413005,13.3288366 13.1712777,13.7899987 10.8078071,13.7899987 Z M5.1437573,12.1456116 L10.8078071,12.1456116 C12.7292128,12.1456116 14.0837201,11.8089655 14.8340078,11.1453841 C15.5538378,10.4990666 15.9062457,9.58947456 15.9062457,8.36783748 C15.9062457,7.47550933 15.695616,6.74567775 15.2623453,6.13626186 C14.840657,5.53655691 14.3022859,5.15178765 13.6137715,4.95670549 C13.2924648,4.87254395 12.5181542,4.76744991 10.7404572,4.76744991 L5.14354279,4.76744991 L5.14354279,12.1456116 L5.1437573,12.1456116 Z"
               id="path171" />
          </g>
        </g>
      </g>
    </g>
  </g>
  <path
     style="fill:#b3b3b3;stroke-width:0.07261147"
     d="M 20.164204,29.879618 V 16.446497 l 5.427707,0.0014 c 5.603991,0.0014 7.462462,0.05722 8.655213,0.259816 1.966176,0.333967 3.406245,1.024337 4.474,2.144838 1.04339,1.094933 1.759978,2.558225 2.039233,4.16417 0.173085,0.995382 0.103541,2.89127 -0.140072,3.818586 -0.236344,0.899645 -0.548984,1.64355 -0.991823,2.359976 -1.120172,1.812213 -2.476809,2.773798 -4.71711,3.343492 -1.41623,0.360137 -2.033686,0.405037 -6.088231,0.442721 l -3.793949,0.03526 v 5.147996 5.147998 h -2.432484 -2.432484 z m 12.888535,-1.630014 c 1.939697,-0.49303 2.795541,-1.583432 2.795541,-3.561706 0,-1.153629 -0.259561,-1.914158 -0.894186,-2.620013 -0.17926,-0.19938 -0.499732,-0.457106 -0.712162,-0.572725 -0.757407,-0.412233 -0.84173,-0.419602 -5.200977,-0.454558 l -4.011783,-0.03217 v 3.714173 3.714173 l 3.757643,-0.02899 c 3.300636,-0.02546 3.819461,-0.0447 4.265924,-0.158184 z"
     id="path203"
     inkscape:connector-curvature="0" />
  <path
     style="fill:#b3b3b3;stroke-width:0.07261147"
     d="m 10.478983,33.130121 c -0.02548,-0.135831 -0.09353,-0.702205 -0.151217,-1.258607 -0.321086,-3.096932 -0.170647,-5.741614 0.470854,-8.277519 0.780129,-3.083912 2.150975,-5.557545 4.318452,-7.792461 1.948829,-2.009464 4.260796,-3.590634 7.077897,-4.840622 l 0.687454,-0.305032 0.200863,0.4761 c 0.110474,0.261855 0.193222,0.482831 0.183884,0.491057 -0.0093,0.0082 -0.423899,0.199156 -0.921247,0.424287 -6.347214,2.873162 -10.001195,7.429622 -10.933386,13.633772 -0.266504,1.7737 -0.263441,4.472319 0.0075,6.585204 0.06334,0.493981 0.08802,0.923619 0.05484,0.954751 -0.03318,0.03113 -0.260396,0.07898 -0.504929,0.10632 l -0.444603,0.04972 z"
     id="path205"
     inkscape:connector-curvature="0" />
  <path
     style="fill:#b3b3b3;stroke-width:0.07261147"
     d="m 33.019565,45.631189 c -0.129215,-0.242432 -0.223625,-0.449865 -0.209799,-0.460961 0.01383,-0.0111 0.368228,-0.210122 0.787559,-0.442279 6.753252,-3.738841 10.244938,-8.259989 11.15895,-14.448968 0.161511,-1.093624 0.182638,-4.320128 0.03585,-5.474564 -0.0735,-0.578065 -0.07591,-0.767222 -0.01027,-0.80779 0.09318,-0.05759 0.874153,-0.162783 0.913843,-0.123092 0.05992,0.05992 0.173874,1.142081 0.248862,2.36341 0.218072,3.551686 -0.406675,6.911618 -1.818187,9.778342 -1.579675,3.208254 -3.99722,5.794511 -7.680364,8.216352 -0.817254,0.537384 -3.041084,1.840336 -3.141015,1.840336 -0.02777,0 -0.156217,-0.198354 -0.285431,-0.440786 z"
     id="path207"
     inkscape:connector-curvature="0" />
  <path
     style="fill:#b3b3b3;stroke-width:0.07261147"
     d="M 6.3296891,56.235071 C 4.4403592,55.985701 2.6530595,54.941816 1.485407,53.405732 1.0405055,52.820451 0.4749302,51.6699 0.25397969,50.900637 L 0.08713376,50.319745 0.06827395,28.514312 C 0.05002796,7.4185629 0.05385653,6.6871342 0.18590893,6.0407268 0.46070617,4.6955715 1.0497572,3.569783 2.00802,2.5583259 2.345654,2.2019495 2.8194438,1.7702586 3.0608863,1.5990126 3.9672398,0.95617093 5.147962,0.48788554 6.2608259,0.32988691 6.6845277,0.26973194 12.629029,0.25363455 28.405605,0.26992003 l 21.565605,0.0222612 0.617198,0.16431275 c 1.304231,0.34721751 2.904873,1.32313052 3.672987,2.23942372 1.091436,1.3019869 1.624386,2.5827702 1.778791,4.2747829 0.04745,0.5199264 0.06458,8.1615734 0.04907,21.8923564 -0.02253,19.956404 -0.03081,21.122583 -0.153519,21.630633 -0.351574,1.455603 -0.935919,2.55591 -1.879159,3.538411 -0.979131,1.019886 -2.065806,1.663403 -3.459541,2.0487 l -0.698441,0.193084 -21.565605,0.0095 c -11.861083,0.0052 -21.7625702,-0.01652 -22.0033049,-0.04829 z m 43.4599929,-1.09162 c 1.310939,-0.212401 2.352098,-0.752868 3.347557,-1.737719 0.907488,-0.897817 1.356089,-1.679257 1.714422,-2.986439 0.119096,-0.434457 0.128165,-1.75936 0.149037,-21.77407 C 55.016619,13.377145 55.000147,7.1587968 54.942611,6.716773 54.731775,5.0970288 53.873549,3.5984166 52.596725,2.6204479 52.04243,2.1958929 51.120729,1.7301683 50.406879,1.5139456 49.990674,1.3878785 49.00289,1.3810395 28.296688,1.360864 4.3404666,1.3375217 6.103811,1.304935 4.9310142,1.7926635 3.9088834,2.2177349 2.8017429,3.1028062 2.2101729,3.9677609 1.8553723,4.4865271 1.4421406,5.4050231 1.2674984,6.0630573 L 1.1036943,6.6802548 V 28.24586 c 0,23.955828 -0.042023,21.917152 0.4774956,23.165091 0.8209043,1.9719 2.7444321,3.47071 4.8231413,3.758184 0.5272648,0.07292 42.9317208,0.04781 43.3853508,-0.02568 z"
     id="path209"
     inkscape:connector-curvature="0" />
</svg>
