<?xml version="1.0" encoding="UTF-8"?>
<svg width="57px" height="57px" viewBox="0 0 57 57" version="1.1" xmlns="http://www.w3.org/2000/svg" xmlns:xlink="http://www.w3.org/1999/xlink">
    <!-- Generator: Sketch 52.5 (67469) - http://www.bohemiancoding.com/sketch -->
    <title>分组 16</title>
    <desc>Created with Sketch.</desc>
    <defs>
        <linearGradient x1="38.2573439%" y1="-273.455869%" x2="58.4547732%" y2="168.243099%" id="linearGradient-1">
            <stop stop-color="#0973FF" offset="0%"></stop>
            <stop stop-color="#09B2FF" offset="100%"></stop>
        </linearGradient>
    </defs>
    <g id="stella" stroke="none" stroke-width="1" fill="none" fill-rule="evenodd">
        <g id="05-操作主页" transform="translate(-175.000000, -651.000000)" fill-rule="nonzero">
            <g id="分组-16" transform="translate(175.000000, 651.000000)">
                <rect id="矩形-copy-6" stroke="#09A1FF" stroke-width="1.122" opacity="0.542736235" x="0.561" y="0.783952258" width="54.978" height="54.978" rx="6.732"></rect>
                <g id="分组-18" transform="translate(10.000000, 14.000000)" fill="url(#linearGradient-1)">
                    <path d="M18.8080058,30.0330355 C24.2621467,30.0330355 37.3208264,25.3824955 37.3208264,15.5017855 C37.3208264,5.62107546 24.2621467,0.862896609 18.8080058,0.970535498 C15.8161348,1.10344457 15.8161348,29.6385993 18.8080058,30.0330355 Z" id="椭圆形"></path>
                    <path d="M2.57816366,2.1796875 C2.17457095,2.1796875 1.84739443,1.85439439 1.84739443,1.453125 C1.84739443,1.05185561 2.17457095,0.7265625 2.57816366,0.7265625 L13.2961124,0.7265625 C13.6997051,0.7265625 14.0268816,1.05185561 14.0268816,1.453125 C14.0268816,1.85439439 13.6997051,2.1796875 13.2961124,2.1796875 L2.57816366,2.1796875 Z" id="路径-46"></path>
                    <path d="M1.60380468,8.9609375 C1.20021198,8.9609375 0.873035451,8.63564439 0.873035451,8.234375 C0.873035451,7.83310561 1.20021198,7.5078125 1.60380468,7.5078125 L12.3217534,7.5078125 C12.7253461,7.5078125 13.0525226,7.83310561 13.0525226,8.234375 C13.0525226,8.63564439 12.7253461,8.9609375 12.3217534,8.9609375 L1.60380468,8.9609375 Z" id="路径-46-copy"></path>
                    <path d="M1.60380468,16.7109375 C1.20021198,16.7109375 0.873035451,16.3856444 0.873035451,15.984375 C0.873035451,15.5831056 1.20021198,15.2578125 1.60380468,15.2578125 L12.3217534,15.2578125 C12.7253461,15.2578125 13.0525226,15.5831056 13.0525226,15.984375 C13.0525226,16.3856444 12.7253461,16.7109375 12.3217534,16.7109375 L1.60380468,16.7109375 Z" id="路径-46-copy-2"></path>
                    <path d="M1.60380468,23.4921875 C1.20021198,23.4921875 0.873035451,23.1668944 0.873035451,22.765625 C0.873035451,22.3643556 1.20021198,22.0390625 1.60380468,22.0390625 L12.3217534,22.0390625 C12.7253461,22.0390625 13.0525226,22.3643556 13.0525226,22.765625 C13.0525226,23.1668944 12.7253461,23.4921875 12.3217534,23.4921875 L1.60380468,23.4921875 Z" id="路径-46-copy-3"></path>
                    <path d="M2.57816366,30.2734375 C2.17457095,30.2734375 1.84739443,29.9481444 1.84739443,29.546875 C1.84739443,29.1456056 2.17457095,28.8203125 2.57816366,28.8203125 L13.2961124,28.8203125 C13.6997051,28.8203125 14.0268816,29.1456056 14.0268816,29.546875 C14.0268816,29.9481444 13.6997051,30.2734375 13.2961124,30.2734375 L2.57816366,30.2734375 Z" id="路径-46-copy-4"></path>
                </g>
            </g>
        </g>
    </g>
</svg>