<?xml version="1.0" encoding="UTF-8" standalone="no"?>
<svg
   xmlns:dc="http://purl.org/dc/elements/1.1/"
   xmlns:cc="http://creativecommons.org/ns#"
   xmlns:rdf="http://www.w3.org/1999/02/22-rdf-syntax-ns#"
   xmlns:svg="http://www.w3.org/2000/svg"
   xmlns="http://www.w3.org/2000/svg"
   xmlns:sodipodi="http://sodipodi.sourceforge.net/DTD/sodipodi-0.dtd"
   xmlns:inkscape="http://www.inkscape.org/namespaces/inkscape"
   width="57px"
   height="57px"
   viewBox="0 0 57 57"
   version="1.1"
   id="svg4978"
   sodipodi:docname="highBeam_off.svg"
   inkscape:version="0.92.3 (2405546, 2018-03-11)">
  <metadata
     id="metadata4982">
    <rdf:RDF>
      <cc:Work
         rdf:about="">
        <dc:format>image/svg+xml</dc:format>
        <dc:type
           rdf:resource="http://purl.org/dc/dcmitype/StillImage" />
        <dc:title>分组 16</dc:title>
      </cc:Work>
    </rdf:RDF>
  </metadata>
  <sodipodi:namedview
     pagecolor="#ffffff"
     bordercolor="#666666"
     borderopacity="1"
     objecttolerance="10"
     gridtolerance="10"
     guidetolerance="10"
     inkscape:pageopacity="0"
     inkscape:pageshadow="2"
     inkscape:window-width="1853"
     inkscape:window-height="1010"
     id="namedview4980"
     showgrid="false"
     inkscape:zoom="13.77193"
     inkscape:cx="28.5"
     inkscape:cy="28.5"
     inkscape:window-x="67"
     inkscape:window-y="40"
     inkscape:window-maximized="1"
     inkscape:current-layer="svg4978" />
  <!-- Generator: Sketch 52.5 (67469) - http://www.bohemiancoding.com/sketch -->
  <title
     id="title4956">分组 16</title>
  <desc
     id="desc4958">Created with Sketch.</desc>
  <defs
     id="defs4965">
    <linearGradient
       x1="38.2573439%"
       y1="-273.455869%"
       x2="58.4547732%"
       y2="168.243099%"
       id="linearGradient-1">
      <stop
         stop-color="#0973FF"
         offset="0%"
         id="stop4960" />
      <stop
         stop-color="#09B2FF"
         offset="100%"
         id="stop4962" />
    </linearGradient>
  </defs>
  <g
     id="stella"
     stroke="none"
     stroke-width="1"
     fill="none"
     fill-rule="evenodd">
    <g
       id="05-操作主页"
       transform="translate(-175.000000, -651.000000)"
       fill-rule="nonzero">
      <g
         id="分组-16"
         transform="translate(175.000000, 651.000000)">
        <rect
           id="矩形-copy-6"
           stroke="#09A1FF"
           stroke-width="1.122"
           opacity="0.542736235"
           x="0.561"
           y="0.783952258"
           width="54.978"
           height="54.978"
           rx="6.732" />
        <g
           id="分组-18"
           transform="translate(10.000000, 14.000000)"
           fill="url(#linearGradient-1)">
          <path
             d="M18.8080058,30.0330355 C24.2621467,30.0330355 37.3208264,25.3824955 37.3208264,15.5017855 C37.3208264,5.62107546 24.2621467,0.862896609 18.8080058,0.970535498 C15.8161348,1.10344457 15.8161348,29.6385993 18.8080058,30.0330355 Z"
             id="椭圆形" />
          <path
             d="M2.57816366,2.1796875 C2.17457095,2.1796875 1.84739443,1.85439439 1.84739443,1.453125 C1.84739443,1.05185561 2.17457095,0.7265625 2.57816366,0.7265625 L13.2961124,0.7265625 C13.6997051,0.7265625 14.0268816,1.05185561 14.0268816,1.453125 C14.0268816,1.85439439 13.6997051,2.1796875 13.2961124,2.1796875 L2.57816366,2.1796875 Z"
             id="路径-46" />
          <path
             d="M1.60380468,8.9609375 C1.20021198,8.9609375 0.873035451,8.63564439 0.873035451,8.234375 C0.873035451,7.83310561 1.20021198,7.5078125 1.60380468,7.5078125 L12.3217534,7.5078125 C12.7253461,7.5078125 13.0525226,7.83310561 13.0525226,8.234375 C13.0525226,8.63564439 12.7253461,8.9609375 12.3217534,8.9609375 L1.60380468,8.9609375 Z"
             id="路径-46-copy" />
          <path
             d="M1.60380468,16.7109375 C1.20021198,16.7109375 0.873035451,16.3856444 0.873035451,15.984375 C0.873035451,15.5831056 1.20021198,15.2578125 1.60380468,15.2578125 L12.3217534,15.2578125 C12.7253461,15.2578125 13.0525226,15.5831056 13.0525226,15.984375 C13.0525226,16.3856444 12.7253461,16.7109375 12.3217534,16.7109375 L1.60380468,16.7109375 Z"
             id="路径-46-copy-2" />
          <path
             d="M1.60380468,23.4921875 C1.20021198,23.4921875 0.873035451,23.1668944 0.873035451,22.765625 C0.873035451,22.3643556 1.20021198,22.0390625 1.60380468,22.0390625 L12.3217534,22.0390625 C12.7253461,22.0390625 13.0525226,22.3643556 13.0525226,22.765625 C13.0525226,23.1668944 12.7253461,23.4921875 12.3217534,23.4921875 L1.60380468,23.4921875 Z"
             id="路径-46-copy-3" />
          <path
             d="M2.57816366,30.2734375 C2.17457095,30.2734375 1.84739443,29.9481444 1.84739443,29.546875 C1.84739443,29.1456056 2.17457095,28.8203125 2.57816366,28.8203125 L13.2961124,28.8203125 C13.6997051,28.8203125 14.0268816,29.1456056 14.0268816,29.546875 C14.0268816,29.9481444 13.6997051,30.2734375 13.2961124,30.2734375 L2.57816366,30.2734375 Z"
             id="路径-46-copy-4" />
        </g>
      </g>
    </g>
  </g>
  <path
     style="fill:#b3b3b3;fill-opacity:1;fill-rule:nonzero;stroke-width:0.07261147"
     d="m 28.47642,43.80404 c -0.808082,-0.808082 -1.363333,-3.627076 -1.734363,-8.805314 -0.145671,-2.033037 -0.120696,-9.635643 0.03852,-11.726751 0.359516,-4.721716 0.948443,-7.5355 1.703179,-8.137467 0.186879,-0.149053 0.246712,-0.155197 1.086552,-0.111572 2.627911,0.136507 5.964082,1.108968 8.875008,2.586977 4.414738,2.241563 7.331634,5.305242 8.384023,8.805922 1.267596,4.216544 -0.125386,8.588391 -3.770743,11.834406 -2.649331,2.3591 -6.345968,4.23028 -10.211856,5.169082 -1.486745,0.361044 -2.222037,0.479401 -3.268868,0.526173 -0.9097,0.04065 -0.920776,0.03922 -1.101455,-0.141456 z"
     id="path4984"
     inkscape:connector-curvature="0" />
  <path
     style="fill:#b3b3b3;fill-opacity:1;fill-rule:nonzero;stroke-width:0.07261147"
     d="m 12.226903,16.04716 c -0.399762,-0.217267 -0.447073,-0.840144 -0.08542,-1.124619 0.182489,-0.143546 0.284342,-0.146108 5.808928,-0.146108 h 5.623182 l 0.212248,0.212249 c 0.330702,0.330702 0.235045,0.889197 -0.185085,1.080621 -0.14244,0.0649 -1.574805,0.08602 -5.687293,0.08384 -4.606218,-0.0024 -5.527632,-0.01961 -5.686559,-0.105984 z"
     id="path4986"
     inkscape:connector-curvature="0" />
  <path
     style="fill:#b3b3b3;fill-opacity:1;fill-rule:nonzero;stroke-width:0.07261147"
     d="m 11.123139,22.705262 c -0.2565,-0.267728 -0.264653,-0.651343 -0.01989,-0.935926 l 0.175223,-0.203731 5.631083,-0.01946 5.631084,-0.01946 0.216612,0.200991 c 0.311391,0.288935 0.331089,0.717979 0.04605,1.003018 l -0.178228,0.178228 h -5.653409 -5.65341 z"
     id="path4988"
     inkscape:connector-curvature="0" />
  <path
     style="fill:#b3b3b3;fill-opacity:1;fill-rule:nonzero;stroke-width:0.07261147"
     d="m 11.140274,30.466095 c -0.292937,-0.292938 -0.292937,-0.662182 0,-0.95512 l 0.212249,-0.212249 h 5.556946 c 3.91848,0 5.609125,0.02377 5.733914,0.08063 0.413765,0.188524 0.480289,0.780403 0.123556,1.099304 l -0.22337,0.199682 h -5.595523 -5.595523 z"
     id="path4990"
     inkscape:connector-curvature="0" />
  <path
     style="fill:#b3b3b3;fill-opacity:1;fill-rule:nonzero;stroke-width:0.07261147"
     d="m 11.119456,37.23978 c -0.204994,-0.204994 -0.256146,-0.568532 -0.116667,-0.829152 0.195217,-0.364765 0.101019,-0.359114 5.966535,-0.357965 4.225097,8.27e-4 5.508871,0.02168 5.649147,0.09177 0.267866,0.133844 0.438126,0.515791 0.357475,0.801929 -0.03576,0.126887 -0.134447,0.287886 -0.219295,0.357774 -0.143994,0.118607 -0.53029,0.12707 -5.800017,0.12707 h -5.645748 z"
     id="path4992"
     inkscape:connector-curvature="0" />
  <path
     style="fill:#b3b3b3;fill-opacity:1;fill-rule:nonzero;stroke-width:0.07261147"
     d="m 12.222397,44.132369 c -0.398112,-0.24698 -0.460825,-0.720398 -0.138174,-1.04305 l 0.212249,-0.212249 h 5.63856 5.63856 l 0.212248,0.212249 c 0.330702,0.330702 0.235045,0.889197 -0.185085,1.080621 -0.142378,0.06487 -1.5766,0.08626 -5.687293,0.08482 -4.991607,-0.0018 -5.51475,-0.013 -5.691065,-0.122387 z"
     id="path4994"
     inkscape:connector-curvature="0" />
  <path
     style="fill:#b3b3b3;fill-opacity:1;fill-rule:nonzero;stroke-width:0.07261147"
     d="M 6.3232601,56.230302 C 3.6217129,55.833302 1.4381095,54.096613 0.49988948,51.598791 0.00334593,50.276843 0.03630573,51.934605 0.03630573,28.282166 0.03630573,5.0695961 0.01488259,6.3512803 0.42286557,5.155414 1.2968113,2.593733 3.5706752,0.70954415 6.2463036,0.32994618 6.6696372,0.26988682 12.628216,0.25351783 28.391083,0.2691116 l 21.565605,0.0213343 0.693464,0.19182145 c 1.286546,0.35587572 2.363909,0.97423665 3.267521,1.87541905 0.941491,0.9389588 1.567733,2.0303661 1.938629,3.3786193 l 0.199749,0.7261147 V 28.282166 50.101911 l -0.193084,0.698441 c -0.760164,2.749736 -2.709249,4.647271 -5.489974,5.344771 -0.452842,0.113588 -2.080138,0.123584 -22.054522,0.135474 -11.918465,0.0071 -21.7577844,-0.01541 -21.9952109,-0.05029 z M 49.775159,55.145457 c 2.412118,-0.380568 4.258543,-2.037824 5.026544,-4.511568 l 0.165159,-0.531978 0.0214,-21.456688 C 55.0035,13.374158 54.986734,7.026831 54.930109,6.627616 54.621709,4.4533392 53.158806,2.5913486 51.116428,1.7735406 49.962634,1.311539 51.545406,1.3395453 27.773885,1.3605061 L 6.0993631,1.3796178 5.4095541,1.6138835 C 3.2547835,2.3456639 1.6661096,4.1093231 1.2382969,6.244586 1.1328068,6.771099 1.123778,8.8578828 1.1418476,28.536306 l 0.019936,21.710828 0.2450012,0.707491 c 0.7560386,2.183218 2.4856229,3.703753 4.7288842,4.157319 0.3830915,0.07746 4.492222,0.09661 21.819745,0.101704 14.261407,0.0042 21.504442,-0.01844 21.819745,-0.06819 z"
     id="path4996"
     inkscape:connector-curvature="0" />
</svg>
