<?xml version="1.0" encoding="UTF-8" standalone="no"?>
<svg
   xmlns:dc="http://purl.org/dc/elements/1.1/"
   xmlns:cc="http://creativecommons.org/ns#"
   xmlns:rdf="http://www.w3.org/1999/02/22-rdf-syntax-ns#"
   xmlns:svg="http://www.w3.org/2000/svg"
   xmlns="http://www.w3.org/2000/svg"
   xmlns:sodipodi="http://sodipodi.sourceforge.net/DTD/sodipodi-0.dtd"
   xmlns:inkscape="http://www.inkscape.org/namespaces/inkscape"
   width="57px"
   height="57px"
   viewBox="0 0 57 57"
   version="1.1"
   id="svg5115"
   sodipodi:docname="lowBeam_off.svg"
   inkscape:version="0.92.3 (2405546, 2018-03-11)">
  <metadata
     id="metadata5119">
    <rdf:RDF>
      <cc:Work
         rdf:about="">
        <dc:format>image/svg+xml</dc:format>
        <dc:type
           rdf:resource="http://purl.org/dc/dcmitype/StillImage" />
        <dc:title>分组 15</dc:title>
      </cc:Work>
    </rdf:RDF>
  </metadata>
  <sodipodi:namedview
     pagecolor="#ffffff"
     bordercolor="#666666"
     borderopacity="1"
     objecttolerance="10"
     gridtolerance="10"
     guidetolerance="10"
     inkscape:pageopacity="0"
     inkscape:pageshadow="2"
     inkscape:window-width="1853"
     inkscape:window-height="1010"
     id="namedview5117"
     showgrid="false"
     inkscape:zoom="13.77193"
     inkscape:cx="28.5"
     inkscape:cy="28.5"
     inkscape:window-x="67"
     inkscape:window-y="40"
     inkscape:window-maximized="1"
     inkscape:current-layer="svg5115" />
  <!-- Generator: Sketch 52.5 (67469) - http://www.bohemiancoding.com/sketch -->
  <title
     id="title5093">分组 15</title>
  <desc
     id="desc5095">Created with Sketch.</desc>
  <defs
     id="defs5102">
    <linearGradient
       x1="38.2573439%"
       y1="-273.455869%"
       x2="58.4547732%"
       y2="168.243099%"
       id="linearGradient-1">
      <stop
         stop-color="#0973FF"
         offset="0%"
         id="stop5097" />
      <stop
         stop-color="#09B2FF"
         offset="100%"
         id="stop5099" />
    </linearGradient>
  </defs>
  <g
     id="stella"
     stroke="none"
     stroke-width="1"
     fill="none"
     fill-rule="evenodd">
    <g
       id="05-操作主页"
       transform="translate(-248.000000, -651.000000)"
       fill-rule="nonzero">
      <g
         id="分组-15"
         transform="translate(248.000000, 651.000000)">
        <rect
           id="矩形-copy-7"
           stroke="#09A1FF"
           stroke-width="1.122"
           opacity="0.542736235"
           x="0.561"
           y="0.561"
           width="54.978"
           height="54.978"
           rx="6.732" />
        <g
           id="分组-8"
           transform="translate(9.000000, 13.000000)"
           fill="url(#linearGradient-1)">
          <path
             d="M19.8205651,29.2657886 C25.2313896,29.2657886 38.1863582,24.6071607 38.1863582,14.7092669 C38.1863582,4.81137298 25.2313896,0.0449190381 19.8205651,0.152745125 C16.8524553,0.285885343 16.8524553,28.8706664 19.8205651,29.2657886 Z"
             id="椭圆形" />
          <path
             d="M3.9868741,2.97143605 C3.5864867,2.97143605 3.26190858,2.64557721 3.26190858,2.24360997 C3.26190858,1.84164272 3.5864867,1.51578388 3.9868741,1.51578388 L14.6197017,1.51578388 C15.0200891,1.51578388 15.3446672,1.84164272 15.3446672,2.24360997 C15.3446672,2.64557721 15.0200891,2.97143605 14.6197017,2.97143605 L3.9868741,2.97143605 Z"
             id="路径-46"
             transform="translate(9.303288, 2.243610) rotate(-10.000000) translate(-9.303288, -2.243610) " />
          <path
             d="M2.43763272,9.61319207 C2.03724532,9.61319207 1.71266721,9.28733323 1.71266721,8.88536598 C1.71266721,8.48339873 2.03724532,8.15753989 2.43763272,8.15753989 L13.0704603,8.15753989 C13.4708477,8.15753989 13.7954258,8.48339873 13.7954258,8.88536598 C13.7954258,9.28733323 13.4708477,9.61319207 13.0704603,9.61319207 L2.43763272,9.61319207 Z"
             id="路径-46-copy"
             transform="translate(7.754047, 8.885366) rotate(-10.000000) translate(-7.754047, -8.885366) " />
          <path
             d="M1.40480514,16.2549481 C1.00441774,16.2549481 0.679839619,15.9290892 0.679839619,15.527122 C0.679839619,15.1251547 1.00441774,14.7992959 1.40480514,14.7992959 L12.0376327,14.7992959 C12.4380201,14.7992959 12.7625982,15.1251547 12.7625982,15.527122 C12.7625982,15.9290892 12.4380201,16.2549481 12.0376327,16.2549481 L1.40480514,16.2549481 Z"
             id="路径-46-copy-2"
             transform="translate(6.721219, 15.527122) rotate(-10.000000) translate(-6.721219, -15.527122) " />
          <path
             d="M2.95404652,22.8967041 C2.55365912,22.8967041 2.229081,22.5708453 2.229081,22.168878 C2.229081,21.7669108 2.55365912,21.4410519 2.95404652,21.4410519 L13.5868741,21.4410519 C13.9872615,21.4410519 14.3118396,21.7669108 14.3118396,22.168878 C14.3118396,22.5708453 13.9872615,22.8967041 13.5868741,22.8967041 L2.95404652,22.8967041 Z"
             id="路径-46-copy-3"
             transform="translate(8.270460, 22.168878) rotate(-10.000000) translate(-8.270460, -22.168878) " />
          <path
             d="M5.01970169,29.5384601 C4.61931429,29.5384601 4.29473617,29.2126013 4.29473617,28.810634 C4.29473617,28.4086668 4.61931429,28.0828079 5.01970169,28.0828079 L15.6525293,28.0828079 C16.0529167,28.0828079 16.3774948,28.4086668 16.3774948,28.810634 C16.3774948,29.2126013 16.0529167,29.5384601 15.6525293,29.5384601 L5.01970169,29.5384601 Z"
             id="路径-46-copy-4"
             transform="translate(10.336115, 28.810634) rotate(-10.000000) translate(-10.336115, -28.810634) " />
        </g>
      </g>
    </g>
  </g>
  <path
     style="fill:#b3b3b3;fill-opacity:1;fill-rule:nonzero;stroke-width:0.07261147"
     d="m 28.55178,42.079691 c -0.249613,-0.198995 -0.567207,-0.81644 -0.766349,-1.489882 -1.268594,-4.290034 -1.553573,-16.205168 -0.554184,-23.170746 0.306094,-2.133425 0.740938,-3.553883 1.239827,-4.050007 l 0.210455,-0.209288 0.871337,0.04376 c 2.530018,0.127057 5.7661,1.058245 8.582888,2.46974 3.795316,1.901837 6.460369,4.353624 7.933473,7.298613 0.325235,0.650203 0.772444,2.026421 0.923358,2.841496 0.190033,1.02636 0.171913,2.985496 -0.03667,3.964881 -0.647289,3.039266 -2.377785,5.563468 -5.349543,7.803153 -3.271979,2.465949 -8.353927,4.406586 -12.089808,4.616721 -0.712947,0.0401 -0.775552,0.03242 -0.964781,-0.11844 z"
     id="path5140"
     inkscape:connector-curvature="0" />
  <path
     style="fill:#b3b3b3;fill-opacity:1;fill-rule:nonzero;stroke-width:0.07261147"
     d="M 12.751305,16.780836 C 12.352091,16.559569 12.27124,16.059915 12.579936,15.721789 l 0.199682,-0.218719 5.373248,-0.945335 c 3.145273,-0.553359 5.455678,-0.927503 5.572045,-0.90233 0.572404,0.123829 0.656284,0.983498 0.12377,1.268491 -0.114409,0.06123 -10.697807,1.964718 -10.873678,1.955697 -0.02759,-0.0014 -0.128254,-0.04586 -0.223698,-0.09876 z"
     id="path5142"
     inkscape:connector-curvature="0" />
  <path
     style="fill:#b3b3b3;fill-opacity:1;fill-rule:nonzero;stroke-width:0.07261147"
     d="M 11.07882,23.301826 C 10.892807,23.145306 10.855414,23.061313 10.855414,22.8 c 0,-0.610718 -0.247182,-0.541725 5.667863,-1.58201 2.89309,-0.508811 5.364535,-0.924655 5.492101,-0.924098 0.312099,0.0014 0.597271,0.260356 0.649734,0.590089 0.03488,0.219213 0.0075,0.300673 -0.166755,0.495667 l -0.20849,0.233342 -5.299711,0.93772 c -2.914841,0.515745 -5.38706,0.93803 -5.493821,0.938409 -0.10676,3.8e-4 -0.294642,-0.0839 -0.417515,-0.187293 z"
     id="path5144"
     inkscape:connector-curvature="0" />
  <path
     style="fill:#b3b3b3;fill-opacity:1;fill-rule:nonzero;stroke-width:0.07261147"
     d="m 10.238217,30.10142 c -0.6221645,-0.254647 -0.5642641,-1.123071 0.08729,-1.309252 0.308941,-0.08828 10.516209,-1.88962 10.707503,-1.88962 0.178388,0 0.545818,0.333819 0.59851,0.54376 0.05604,0.223276 -0.114948,0.653475 -0.298845,0.751895 -0.104597,0.05598 -10.836951,1.987884 -10.928751,1.967258 -0.01127,-0.0025 -0.08584,-0.03135 -0.165708,-0.06404 z"
     id="path5146"
     inkscape:connector-curvature="0" />
  <path
     style="fill:#b3b3b3;fill-opacity:1;fill-rule:nonzero;stroke-width:0.07261147"
     d="m 11.575943,36.565458 c -0.152373,-0.152373 -0.212249,-0.282755 -0.212249,-0.462182 0,-0.266469 0.21034,-0.598491 0.41941,-0.66204 0.345544,-0.10503 10.47529,-1.858433 10.736526,-1.858433 0.250061,0 0.337001,0.0395 0.49175,0.223405 0.318878,0.378965 0.182881,0.93151 -0.264576,1.074946 -0.310745,0.09961 -10.508503,1.896553 -10.763065,1.896553 -0.119316,0 -0.278289,-0.08274 -0.407796,-0.212249 z"
     id="path5148"
     inkscape:connector-curvature="0" />
  <path
     style="fill:#b3b3b3;fill-opacity:1;fill-rule:nonzero;stroke-width:0.07261147"
     d="m 13.860666,43.387609 c -0.229064,-0.09376 -0.463851,-0.430068 -0.463851,-0.664409 0,-0.123888 0.08011,-0.295286 0.199682,-0.427208 l 0.199681,-0.220312 5.347541,-0.942617 c 2.941147,-0.518439 5.413783,-0.942617 5.494747,-0.942617 0.08096,0 0.24774,0.08459 0.370612,0.187983 0.184655,0.155377 0.223005,0.240393 0.221097,0.490128 -0.0025,0.325318 -0.08919,0.484615 -0.335014,0.615532 -0.113826,0.06062 -7.342337,1.368294 -10.69962,1.935616 -0.09984,0.01687 -0.250534,0.0024 -0.334875,-0.0321 z"
     id="path5150"
     inkscape:connector-curvature="0" />
  <path
     style="fill:#b3b3b3;fill-opacity:1;fill-rule:nonzero;stroke-width:0.07261147"
     d="M 6.6076433,56.045323 C 4.8025754,55.826099 3.3420719,55.131454 2.1397644,53.920307 1.2211342,52.994923 0.61825605,51.941639 0.23163184,50.586624 L 0.07261146,50.029299 0.05121862,28.427389 C 0.03557219,12.628052 0.05191321,6.6699035 0.11205321,6.2463036 0.55996785,3.0913888 3.0333032,0.60285221 6.2082803,0.11260913 6.6142144,0.04992949 12.261965,0.03413328 28.391083,0.05056598 l 21.638216,0.02204548 0.557325,0.15902038 c 2.509505,0.71603252 4.374233,2.46666296 5.128676,4.81486496 0.356894,1.1108326 0.340751,0.015234 0.340751,23.1267512 v 21.710828 l -0.198789,0.720932 c -0.722624,2.620676 -2.636714,4.528675 -5.274745,5.257959 l -0.698441,0.193084 -21.529299,0.0079 c -11.841115,0.0043 -21.6273248,-0.004 -21.7471337,-0.01859 z m 43.8210187,-1.24584 c 2.164065,-0.665182 3.709608,-2.210531 4.371375,-4.370821 l 0.166825,-0.544586 0.0214,-21.456687 C 55.0035,13.156324 54.986734,6.8089966 54.930109,6.4097816 54.600064,4.0829012 53.01683,2.1999024 50.719108,1.4014809 L 50.029299,1.1617834 28.318471,1.1418476 C 8.6400484,1.123778 6.5532646,1.1328068 6.0267516,1.2382969 3.6576621,1.7129581 1.7129581,3.6576621 1.2382969,6.0267516 1.1328068,6.5532646 1.123778,8.6400484 1.1418476,28.318471 l 0.019936,21.710828 0.2396975,0.689809 c 0.7713903,2.219931 2.5168512,3.747634 4.7704936,4.175344 0.4164103,0.07903 4.4127543,0.09429 22.1101913,0.08445 l 21.60191,-0.01202 z"
     id="path5152"
     inkscape:connector-curvature="0" />
</svg>
