<?xml version="1.0" encoding="UTF-8"?>
<svg width="57px" height="57px" viewBox="0 0 57 57" version="1.1" xmlns="http://www.w3.org/2000/svg" xmlns:xlink="http://www.w3.org/1999/xlink">
    <!-- Generator: Sketch 52.5 (67469) - http://www.bohemiancoding.com/sketch -->
    <title>分组 15</title>
    <desc>Created with Sketch.</desc>
    <defs>
        <linearGradient x1="38.2573439%" y1="-273.455869%" x2="58.4547732%" y2="168.243099%" id="linearGradient-1">
            <stop stop-color="#0973FF" offset="0%"></stop>
            <stop stop-color="#09B2FF" offset="100%"></stop>
        </linearGradient>
    </defs>
    <g id="stella" stroke="none" stroke-width="1" fill="none" fill-rule="evenodd">
        <g id="05-操作主页" transform="translate(-248.000000, -651.000000)" fill-rule="nonzero">
            <g id="分组-15" transform="translate(248.000000, 651.000000)">
                <rect id="矩形-copy-7" stroke="#09A1FF" stroke-width="1.122" opacity="0.542736235" x="0.561" y="0.561" width="54.978" height="54.978" rx="6.732"></rect>
                <g id="分组-8" transform="translate(9.000000, 13.000000)" fill="url(#linearGradient-1)">
                    <path d="M19.8205651,29.2657886 C25.2313896,29.2657886 38.1863582,24.6071607 38.1863582,14.7092669 C38.1863582,4.81137298 25.2313896,0.0449190381 19.8205651,0.152745125 C16.8524553,0.285885343 16.8524553,28.8706664 19.8205651,29.2657886 Z" id="椭圆形"></path>
                    <path d="M3.9868741,2.97143605 C3.5864867,2.97143605 3.26190858,2.64557721 3.26190858,2.24360997 C3.26190858,1.84164272 3.5864867,1.51578388 3.9868741,1.51578388 L14.6197017,1.51578388 C15.0200891,1.51578388 15.3446672,1.84164272 15.3446672,2.24360997 C15.3446672,2.64557721 15.0200891,2.97143605 14.6197017,2.97143605 L3.9868741,2.97143605 Z" id="路径-46" transform="translate(9.303288, 2.243610) rotate(-10.000000) translate(-9.303288, -2.243610) "></path>
                    <path d="M2.43763272,9.61319207 C2.03724532,9.61319207 1.71266721,9.28733323 1.71266721,8.88536598 C1.71266721,8.48339873 2.03724532,8.15753989 2.43763272,8.15753989 L13.0704603,8.15753989 C13.4708477,8.15753989 13.7954258,8.48339873 13.7954258,8.88536598 C13.7954258,9.28733323 13.4708477,9.61319207 13.0704603,9.61319207 L2.43763272,9.61319207 Z" id="路径-46-copy" transform="translate(7.754047, 8.885366) rotate(-10.000000) translate(-7.754047, -8.885366) "></path>
                    <path d="M1.40480514,16.2549481 C1.00441774,16.2549481 0.679839619,15.9290892 0.679839619,15.527122 C0.679839619,15.1251547 1.00441774,14.7992959 1.40480514,14.7992959 L12.0376327,14.7992959 C12.4380201,14.7992959 12.7625982,15.1251547 12.7625982,15.527122 C12.7625982,15.9290892 12.4380201,16.2549481 12.0376327,16.2549481 L1.40480514,16.2549481 Z" id="路径-46-copy-2" transform="translate(6.721219, 15.527122) rotate(-10.000000) translate(-6.721219, -15.527122) "></path>
                    <path d="M2.95404652,22.8967041 C2.55365912,22.8967041 2.229081,22.5708453 2.229081,22.168878 C2.229081,21.7669108 2.55365912,21.4410519 2.95404652,21.4410519 L13.5868741,21.4410519 C13.9872615,21.4410519 14.3118396,21.7669108 14.3118396,22.168878 C14.3118396,22.5708453 13.9872615,22.8967041 13.5868741,22.8967041 L2.95404652,22.8967041 Z" id="路径-46-copy-3" transform="translate(8.270460, 22.168878) rotate(-10.000000) translate(-8.270460, -22.168878) "></path>
                    <path d="M5.01970169,29.5384601 C4.61931429,29.5384601 4.29473617,29.2126013 4.29473617,28.810634 C4.29473617,28.4086668 4.61931429,28.0828079 5.01970169,28.0828079 L15.6525293,28.0828079 C16.0529167,28.0828079 16.3774948,28.4086668 16.3774948,28.810634 C16.3774948,29.2126013 16.0529167,29.5384601 15.6525293,29.5384601 L5.01970169,29.5384601 Z" id="路径-46-copy-4" transform="translate(10.336115, 28.810634) rotate(-10.000000) translate(-10.336115, -28.810634) "></path>
                </g>
            </g>
        </g>
    </g>
</svg>