<?xml version="1.0" encoding="UTF-8"?>
<svg width="57px" height="57px" viewBox="0 0 57 57" version="1.1" xmlns="http://www.w3.org/2000/svg" xmlns:xlink="http://www.w3.org/1999/xlink">
    <!-- Generator: Sketch 52.5 (67469) - http://www.bohemiancoding.com/sketch -->
    <title>分组 13</title>
    <desc>Created with Sketch.</desc>
    <defs>
        <linearGradient x1="45.3144688%" y1="-162.022512%" x2="57.7740587%" y2="135.620076%" id="linearGradient-1">
            <stop stop-color="#0973FF" offset="0%"></stop>
            <stop stop-color="#09B2FF" offset="100%"></stop>
        </linearGradient>
        <linearGradient x1="50%" y1="-379.536229%" x2="60.2593595%" y2="299.962627%" id="linearGradient-2">
            <stop stop-color="#0973FF" offset="0%"></stop>
            <stop stop-color="#09B2FF" offset="100%"></stop>
        </linearGradient>
        <linearGradient x1="38.2573439%" y1="-273.455869%" x2="58.4547732%" y2="168.243099%" id="linearGradient-3">
            <stop stop-color="#0973FF" offset="0%"></stop>
            <stop stop-color="#09B2FF" offset="100%"></stop>
        </linearGradient>
    </defs>
    <g id="stella" stroke="none" stroke-width="1" fill="none" fill-rule="evenodd">
        <g id="05-操作主页" transform="translate(-393.000000, -651.000000)" fill-rule="nonzero">
            <g id="分组-13" transform="translate(393.000000, 651.000000)">
                <rect id="矩形-copy-7" stroke="#09A1FF" stroke-width="1.122" opacity="0.542736235" x="0.561" y="0.561" width="54.978" height="54.978" rx="6.732"></rect>
                <g id="分组-19" transform="translate(12.000000, 11.000000)">
                    <polygon id="矩形" fill="url(#linearGradient-1)" transform="translate(16.876930, 19.680025) rotate(30.000000) translate(-16.876930, -19.680025) " points="5.25458679 13.7520598 28.5810851 13.6854266 32.1885931 25.1474245 1.56526673 25.6746239"></polygon>
                    <polygon id="矩形-copy-13" fill="url(#linearGradient-2)" transform="translate(13.457456, 25.933834) rotate(-150.000000) translate(-13.457456, -25.933834) " points="-0.789985323 25.4438186 27.7206141 24.9875738 28.3076699 26.3874127 -1.39275886 26.8800936"></polygon>
                    <polygon id="路径-49" fill="url(#linearGradient-3)" points="12.5511818 9.70121026 27.8008973 18.3289102 31.4977962 17.0860624 24.191745 12.7299591 26.8932706 8.11409602 25.4609905 7.27493956 29.8802469 8.52651283e-14 27.4096475 8.52651283e-14 23.6906452 6.180181 22.2774837 5.38484097 19.4039039 10.367652 12.1890936 6.180181"></polygon>
                </g>
            </g>
        </g>
    </g>
</svg>