<?xml version="1.0" encoding="UTF-8" standalone="no"?>
<svg
   xmlns:dc="http://purl.org/dc/elements/1.1/"
   xmlns:cc="http://creativecommons.org/ns#"
   xmlns:rdf="http://www.w3.org/1999/02/22-rdf-syntax-ns#"
   xmlns:svg="http://www.w3.org/2000/svg"
   xmlns="http://www.w3.org/2000/svg"
   xmlns:sodipodi="http://sodipodi.sourceforge.net/DTD/sodipodi-0.dtd"
   xmlns:inkscape="http://www.inkscape.org/namespaces/inkscape"
   width="57px"
   height="57px"
   viewBox="0 0 57 57"
   version="1.1"
   id="svg5421"
   sodipodi:docname="pallet_off.svg"
   inkscape:version="0.92.3 (2405546, 2018-03-11)">
  <metadata
     id="metadata5425">
    <rdf:RDF>
      <cc:Work
         rdf:about="">
        <dc:format>image/svg+xml</dc:format>
        <dc:type
           rdf:resource="http://purl.org/dc/dcmitype/StillImage" />
        <dc:title>分组 13</dc:title>
      </cc:Work>
    </rdf:RDF>
  </metadata>
  <sodipodi:namedview
     pagecolor="#ffffff"
     bordercolor="#666666"
     borderopacity="1"
     objecttolerance="10"
     gridtolerance="10"
     guidetolerance="10"
     inkscape:pageopacity="0"
     inkscape:pageshadow="2"
     inkscape:window-width="1853"
     inkscape:window-height="1010"
     id="namedview5423"
     showgrid="false"
     inkscape:zoom="13.77193"
     inkscape:cx="28.5"
     inkscape:cy="28.5"
     inkscape:window-x="67"
     inkscape:window-y="40"
     inkscape:window-maximized="1"
     inkscape:current-layer="svg5421" />
  <!-- Generator: Sketch 52.5 (67469) - http://www.bohemiancoding.com/sketch -->
  <title
     id="title5392">分组 13</title>
  <desc
     id="desc5394">Created with Sketch.</desc>
  <defs
     id="defs5411">
    <linearGradient
       x1="45.3144688%"
       y1="-162.022512%"
       x2="57.7740587%"
       y2="135.620076%"
       id="linearGradient-1">
      <stop
         stop-color="#0973FF"
         offset="0%"
         id="stop5396" />
      <stop
         stop-color="#09B2FF"
         offset="100%"
         id="stop5398" />
    </linearGradient>
    <linearGradient
       x1="50%"
       y1="-379.536229%"
       x2="60.2593595%"
       y2="299.962627%"
       id="linearGradient-2">
      <stop
         stop-color="#0973FF"
         offset="0%"
         id="stop5401" />
      <stop
         stop-color="#09B2FF"
         offset="100%"
         id="stop5403" />
    </linearGradient>
    <linearGradient
       x1="38.2573439%"
       y1="-273.455869%"
       x2="58.4547732%"
       y2="168.243099%"
       id="linearGradient-3">
      <stop
         stop-color="#0973FF"
         offset="0%"
         id="stop5406" />
      <stop
         stop-color="#09B2FF"
         offset="100%"
         id="stop5408" />
    </linearGradient>
  </defs>
  <g
     id="stella"
     stroke="none"
     stroke-width="1"
     fill="none"
     fill-rule="evenodd">
    <g
       id="05-操作主页"
       transform="translate(-393.000000, -651.000000)"
       fill-rule="nonzero">
      <g
         id="分组-13"
         transform="translate(393.000000, 651.000000)">
        <rect
           id="矩形-copy-7"
           stroke="#09A1FF"
           stroke-width="1.122"
           opacity="0.542736235"
           x="0.561"
           y="0.561"
           width="54.978"
           height="54.978"
           rx="6.732" />
        <g
           id="分组-19"
           transform="translate(12.000000, 11.000000)">
          <polygon
             id="矩形"
             fill="url(#linearGradient-1)"
             transform="translate(16.876930, 19.680025) rotate(30.000000) translate(-16.876930, -19.680025) "
             points="5.25458679 13.7520598 28.5810851 13.6854266 32.1885931 25.1474245 1.56526673 25.6746239" />
          <polygon
             id="矩形-copy-13"
             fill="url(#linearGradient-2)"
             transform="translate(13.457456, 25.933834) rotate(-150.000000) translate(-13.457456, -25.933834) "
             points="-0.789985323 25.4438186 27.7206141 24.9875738 28.3076699 26.3874127 -1.39275886 26.8800936" />
          <polygon
             id="路径-49"
             fill="url(#linearGradient-3)"
             points="12.5511818 9.70121026 27.8008973 18.3289102 31.4977962 17.0860624 24.191745 12.7299591 26.8932706 8.11409602 25.4609905 7.27493956 29.8802469 8.52651283e-14 27.4096475 8.52651283e-14 23.6906452 6.180181 22.2774837 5.38484097 19.4039039 10.367652 12.1890936 6.180181" />
        </g>
      </g>
    </g>
  </g>
  <path
     style="fill:#b3b3b3;fill-opacity:1;fill-rule:nonzero;stroke-width:0.07261147"
     d="m 26.050098,35.625972 c -7.317924,-4.059061 -13.305647,-7.401567 -13.306051,-7.42779 -0.0012,-0.07727 9.019772,-8.418306 9.080183,-8.395794 0.03032,0.0113 4.577148,2.615014 10.104066,5.786036 l 10.04894,5.765493 -1.29148,5.808706 c -0.710313,3.194788 -1.300223,5.816526 -1.31091,5.826084 -0.01069,0.0096 -6.006825,-3.303673 -13.324748,-7.362735 z"
     id="path5446"
     inkscape:connector-curvature="0" />
  <path
     style="fill:#b3b3b3;fill-opacity:1;fill-rule:nonzero;stroke-width:0.07261147"
     d="m 32.23949,25.014351 c -4.153375,-2.352466 -7.574704,-4.286858 -7.602951,-4.298648 -0.04597,-0.01919 -0.434778,-3.40791 -0.395514,-3.447174 0.0089,-0.0089 1.616121,0.912997 3.57164,2.048623 1.955518,1.135626 3.571825,2.064583 3.591794,2.064349 0.01997,-2.18e-4 0.650041,-1.069862 1.400164,-2.376951 0.750121,-1.307088 1.392521,-2.422718 1.427555,-2.479176 0.05141,-0.08285 0.190878,-0.03034 0.72315,0.272293 0.362698,0.206219 0.684215,0.374884 0.714482,0.374811 0.03027,-7.4e-5 0.888247,-1.387363 1.906623,-3.082866 l 1.851592,-3.082732 1.210492,-0.0031 1.210492,-0.0031 -2.213466,3.641618 c -1.324279,2.178719 -2.1827,3.660633 -2.13688,3.688952 0.04212,0.02603 0.354592,0.207982 0.694376,0.404331 0.339784,0.196348 0.617789,0.380825 0.617789,0.409947 0,0.02912 -0.588153,1.058246 -1.307006,2.286941 -0.718854,1.228697 -1.307007,2.255972 -1.307007,2.282835 0,0.02686 1.494889,0.940273 3.321975,2.029802 1.827086,1.089528 3.452459,2.06251 3.61194,2.162181 l 0.289966,0.181222 -1.705889,0.569454 c -0.93824,0.313201 -1.754903,0.583898 -1.814807,0.601549 -0.0599,0.01765 -3.507134,-1.892651 -7.66051,-4.245118 z"
     id="path5448"
     inkscape:connector-curvature="0" />
  <path
     style="fill:#b3b3b3;fill-opacity:1;fill-rule:nonzero;stroke-width:0.07261147"
     d="M 25.262609,37.615067 C 18.509974,33.858292 12.912236,30.736161 12.823191,30.676997 12.662702,30.570364 12.662123,30.563288 12.75676,29.86491 l 0.09547,-0.704517 12.902259,7.168559 c 7.096242,3.942707 12.916838,7.184167 12.934658,7.203243 0.01782,0.01908 -0.23342,0.232389 -0.55831,0.474028 l -0.590709,0.439344 z"
     id="path5450"
     inkscape:connector-curvature="0" />
  <path
     style="fill:#b3b3b3;fill-opacity:1;fill-rule:nonzero;stroke-width:0.07261147"
     d="M 6.6076433,56.045323 C 4.8025754,55.826099 3.3420719,55.131454 2.1397644,53.920307 1.2211342,52.994923 0.61825605,51.941639 0.23163184,50.586624 L 0.07261146,50.029299 0.05121862,28.427389 C 0.03557219,12.628052 0.05191321,6.6699035 0.11205321,6.2463036 0.55996785,3.0913888 3.0333032,0.60285221 6.2082803,0.11260913 6.6142144,0.04992949 12.261965,0.03413328 28.391083,0.05056598 l 21.638216,0.02204548 0.557325,0.15902038 c 2.509505,0.71603252 4.374233,2.46666296 5.128676,4.81486496 0.356894,1.1108326 0.340751,0.015234 0.340751,23.1267512 v 21.710828 l -0.198789,0.720932 c -0.722624,2.620676 -2.636714,4.528675 -5.274745,5.257959 l -0.698441,0.193084 -21.529299,0.0079 c -11.841115,0.0043 -21.6273248,-0.004 -21.7471337,-0.01859 z m 43.8210187,-1.24584 c 2.164065,-0.665182 3.709608,-2.210531 4.371375,-4.370821 l 0.166825,-0.544586 0.0214,-21.456687 C 55.0035,13.156324 54.986734,6.8089966 54.930109,6.4097816 54.600064,4.0829012 53.01683,2.1999024 50.719108,1.4014809 L 50.029299,1.1617834 28.318471,1.1418476 C 8.6400484,1.123778 6.5532646,1.1328068 6.0267516,1.2382969 3.6576621,1.7129581 1.7129581,3.6576621 1.2382969,6.0267516 1.1328068,6.5532646 1.123778,8.6400484 1.1418476,28.318471 l 0.019936,21.710828 0.2396975,0.689809 c 0.7713903,2.219931 2.5168512,3.747634 4.7704936,4.175344 0.4164103,0.07903 4.4127543,0.09429 22.1101913,0.08445 l 21.60191,-0.01202 z"
     id="path5452"
     inkscape:connector-curvature="0" />
</svg>
