<?xml version="1.0" encoding="UTF-8"?>
<svg width="57px" height="57px" viewBox="0 0 57 57" version="1.1" xmlns="http://www.w3.org/2000/svg" xmlns:xlink="http://www.w3.org/1999/xlink">
    <!-- Generator: Sketch 52.5 (67469) - http://www.bohemiancoding.com/sketch -->
    <title>分组 17</title>
    <desc>Created with Sketch.</desc>
    <defs>
        <linearGradient x1="38.2573439%" y1="-273.455869%" x2="58.4547732%" y2="168.243099%" id="linearGradient-1">
            <stop stop-color="#0973FF" offset="0%"></stop>
            <stop stop-color="#09B2FF" offset="100%"></stop>
        </linearGradient>
    </defs>
    <g id="stella" stroke="none" stroke-width="1" fill="none" fill-rule="evenodd">
        <g id="05-操作主页" transform="translate(-103.000000, -651.000000)" fill-rule="nonzero">
            <g id="分组-17" transform="translate(103.000000, 651.000000)">
                <rect id="矩形-copy-5" stroke="#09A1FF" stroke-width="1.122" opacity="0.542736235" x="0.561" y="0.783952258" width="54.978" height="54.978" rx="6.732"></rect>
                <g id="分组-9" transform="translate(3.000000, 17.000000)" fill="url(#linearGradient-1)">
                    <path d="M3.88005267,1.47861844 C3.63892787,1.32207663 3.57025621,0.999544452 3.72667023,0.758222652 C3.88308425,0.516900851 4.20535314,0.448173087 4.44647794,0.604714894 L9.03562215,3.58405555 C9.27674695,3.74059735 9.34541861,4.06312953 9.1890046,4.30445133 C9.03259058,4.54577313 8.71032169,4.6145009 8.46919689,4.45795909 L3.88005267,1.47861844 Z" id="路径-47"></path>
                    <path d="M42.3902568,1.47861844 C42.149132,1.32207663 42.0804603,0.999544452 42.2368743,0.758222652 C42.3932883,0.516900851 42.7155572,0.448173087 42.956682,0.604714894 L47.5458262,3.58405555 C47.786951,3.74059735 47.8556227,4.06312953 47.6992087,4.30445133 C47.5427947,4.54577313 47.2205258,4.6145009 46.979401,4.45795909 L42.3902568,1.47861844 Z" id="路径-47-copy-2" transform="translate(44.968041, 2.531337) scale(-1, 1) translate(-44.968041, -2.531337) "></path>
                    <path d="M3.88005267,21.2702851 C3.63892787,21.1137433 3.57025621,20.7912111 3.72667023,20.5498893 C3.88308425,20.3085675 4.20535314,20.2398398 4.44647794,20.3963816 L9.03562215,23.3757222 C9.27674695,23.532264 9.34541861,23.8547962 9.1890046,24.096118 C9.03259058,24.3374398 8.71032169,24.4061676 8.46919689,24.2496258 L3.88005267,21.2702851 Z" id="路径-47-copy" transform="translate(6.457837, 22.323004) scale(-1, 1) translate(-6.457837, -22.323004) "></path>
                    <path d="M42.3902568,21.2702851 C42.149132,21.1137433 42.0804603,20.7912111 42.2368743,20.5498893 C42.3932883,20.3085675 42.7155572,20.2398398 42.956682,20.3963816 L47.5458262,23.3757222 C47.786951,23.532264 47.8556227,23.8547962 47.6992087,24.096118 C47.5427947,24.3374398 47.2205258,24.4061676 46.979401,24.2496258 L42.3902568,21.2702851 Z" id="路径-47-copy-3"></path>
                    <path d="M1.04081633,13.5416667 C0.753402834,13.5416667 0.520408163,13.3084816 0.520408163,13.0208333 C0.520408163,12.733185 0.753402834,12.5 1.04081633,12.5 L6.22612443,12.5 C6.51353792,12.5 6.74653259,12.733185 6.74653259,13.0208333 C6.74653259,13.3084816 6.51353792,13.5416667 6.22612443,13.5416667 L1.04081633,13.5416667 Z" id="路径-48"></path>
                    <path d="M44.755102,13.5416667 C44.4676885,13.5416667 44.2346939,13.3084816 44.2346939,13.0208333 C44.2346939,12.733185 44.4676885,12.5 44.755102,12.5 L49.9404101,12.5 C50.2278236,12.5 50.4608183,12.733185 50.4608183,13.0208333 C50.4608183,13.3084816 50.2278236,13.5416667 49.9404101,13.5416667 L44.755102,13.5416667 Z" id="路径-48-copy" transform="translate(47.347756, 13.020833) scale(-1, 1) translate(-47.347756, -13.020833) "></path>
                    <path d="M11.8708886,22.9166667 C15.4262601,22.9166667 23.9387755,19.7498268 23.9387755,13.0214413 C23.9387755,6.29305568 15.4262601,3.05291789 11.8708886,3.12621586 C9.92058816,3.21672185 9.92058816,22.6480707 11.8708886,22.9166667 Z" id="椭圆形"></path>
                    <path d="M28.5239498,22.9166667 C32.0793213,22.9166667 40.5918367,19.7498268 40.5918367,13.0214413 C40.5918367,6.29305568 32.0793213,3.05291789 28.5239498,3.12621586 C26.5736494,3.21672185 26.5736494,22.6480707 28.5239498,22.9166667 Z" id="椭圆形-copy-14" transform="translate(33.826531, 13.020833) scale(-1, 1) translate(-33.826531, -13.020833) "></path>
                </g>
            </g>
        </g>
    </g>
</svg>