<?xml version="1.0" encoding="UTF-8" standalone="no"?>
<svg
   xmlns:dc="http://purl.org/dc/elements/1.1/"
   xmlns:cc="http://creativecommons.org/ns#"
   xmlns:rdf="http://www.w3.org/1999/02/22-rdf-syntax-ns#"
   xmlns:svg="http://www.w3.org/2000/svg"
   xmlns="http://www.w3.org/2000/svg"
   xmlns:sodipodi="http://sodipodi.sourceforge.net/DTD/sodipodi-0.dtd"
   xmlns:inkscape="http://www.inkscape.org/namespaces/inkscape"
   width="57px"
   height="57px"
   viewBox="0 0 57 57"
   version="1.1"
   id="svg4837"
   sodipodi:docname="positionLamp_off.svg"
   inkscape:version="0.92.3 (2405546, 2018-03-11)">
  <metadata
     id="metadata4841">
    <rdf:RDF>
      <cc:Work
         rdf:about="">
        <dc:format>image/svg+xml</dc:format>
        <dc:type
           rdf:resource="http://purl.org/dc/dcmitype/StillImage" />
        <dc:title>分组 17</dc:title>
      </cc:Work>
    </rdf:RDF>
  </metadata>
  <sodipodi:namedview
     pagecolor="#ffffff"
     bordercolor="#666666"
     borderopacity="1"
     objecttolerance="10"
     gridtolerance="10"
     guidetolerance="10"
     inkscape:pageopacity="0"
     inkscape:pageshadow="2"
     inkscape:window-width="1853"
     inkscape:window-height="1010"
     id="namedview4839"
     showgrid="false"
     inkscape:zoom="13.77193"
     inkscape:cx="28.5"
     inkscape:cy="28.5"
     inkscape:window-x="67"
     inkscape:window-y="40"
     inkscape:window-maximized="1"
     inkscape:current-layer="svg4837" />
  <!-- Generator: Sketch 52.5 (67469) - http://www.bohemiancoding.com/sketch -->
  <title
     id="title4813">分组 17</title>
  <desc
     id="desc4815">Created with Sketch.</desc>
  <defs
     id="defs4822">
    <linearGradient
       x1="38.2573439%"
       y1="-273.455869%"
       x2="58.4547732%"
       y2="168.243099%"
       id="linearGradient-1">
      <stop
         stop-color="#0973FF"
         offset="0%"
         id="stop4817" />
      <stop
         stop-color="#09B2FF"
         offset="100%"
         id="stop4819" />
    </linearGradient>
  </defs>
  <g
     id="stella"
     stroke="none"
     stroke-width="1"
     fill="none"
     fill-rule="evenodd">
    <g
       id="05-操作主页"
       transform="translate(-103.000000, -651.000000)"
       fill-rule="nonzero">
      <g
         id="分组-17"
         transform="translate(103.000000, 651.000000)">
        <rect
           id="矩形-copy-5"
           stroke="#09A1FF"
           stroke-width="1.122"
           opacity="0.542736235"
           x="0.561"
           y="0.783952258"
           width="54.978"
           height="54.978"
           rx="6.732" />
        <g
           id="分组-9"
           transform="translate(3.000000, 17.000000)"
           fill="url(#linearGradient-1)">
          <path
             d="M3.88005267,1.47861844 C3.63892787,1.32207663 3.57025621,0.999544452 3.72667023,0.758222652 C3.88308425,0.516900851 4.20535314,0.448173087 4.44647794,0.604714894 L9.03562215,3.58405555 C9.27674695,3.74059735 9.34541861,4.06312953 9.1890046,4.30445133 C9.03259058,4.54577313 8.71032169,4.6145009 8.46919689,4.45795909 L3.88005267,1.47861844 Z"
             id="路径-47" />
          <path
             d="M42.3902568,1.47861844 C42.149132,1.32207663 42.0804603,0.999544452 42.2368743,0.758222652 C42.3932883,0.516900851 42.7155572,0.448173087 42.956682,0.604714894 L47.5458262,3.58405555 C47.786951,3.74059735 47.8556227,4.06312953 47.6992087,4.30445133 C47.5427947,4.54577313 47.2205258,4.6145009 46.979401,4.45795909 L42.3902568,1.47861844 Z"
             id="路径-47-copy-2"
             transform="translate(44.968041, 2.531337) scale(-1, 1) translate(-44.968041, -2.531337) " />
          <path
             d="M3.88005267,21.2702851 C3.63892787,21.1137433 3.57025621,20.7912111 3.72667023,20.5498893 C3.88308425,20.3085675 4.20535314,20.2398398 4.44647794,20.3963816 L9.03562215,23.3757222 C9.27674695,23.532264 9.34541861,23.8547962 9.1890046,24.096118 C9.03259058,24.3374398 8.71032169,24.4061676 8.46919689,24.2496258 L3.88005267,21.2702851 Z"
             id="路径-47-copy"
             transform="translate(6.457837, 22.323004) scale(-1, 1) translate(-6.457837, -22.323004) " />
          <path
             d="M42.3902568,21.2702851 C42.149132,21.1137433 42.0804603,20.7912111 42.2368743,20.5498893 C42.3932883,20.3085675 42.7155572,20.2398398 42.956682,20.3963816 L47.5458262,23.3757222 C47.786951,23.532264 47.8556227,23.8547962 47.6992087,24.096118 C47.5427947,24.3374398 47.2205258,24.4061676 46.979401,24.2496258 L42.3902568,21.2702851 Z"
             id="路径-47-copy-3" />
          <path
             d="M1.04081633,13.5416667 C0.753402834,13.5416667 0.520408163,13.3084816 0.520408163,13.0208333 C0.520408163,12.733185 0.753402834,12.5 1.04081633,12.5 L6.22612443,12.5 C6.51353792,12.5 6.74653259,12.733185 6.74653259,13.0208333 C6.74653259,13.3084816 6.51353792,13.5416667 6.22612443,13.5416667 L1.04081633,13.5416667 Z"
             id="路径-48" />
          <path
             d="M44.755102,13.5416667 C44.4676885,13.5416667 44.2346939,13.3084816 44.2346939,13.0208333 C44.2346939,12.733185 44.4676885,12.5 44.755102,12.5 L49.9404101,12.5 C50.2278236,12.5 50.4608183,12.733185 50.4608183,13.0208333 C50.4608183,13.3084816 50.2278236,13.5416667 49.9404101,13.5416667 L44.755102,13.5416667 Z"
             id="路径-48-copy"
             transform="translate(47.347756, 13.020833) scale(-1, 1) translate(-47.347756, -13.020833) " />
          <path
             d="M11.8708886,22.9166667 C15.4262601,22.9166667 23.9387755,19.7498268 23.9387755,13.0214413 C23.9387755,6.29305568 15.4262601,3.05291789 11.8708886,3.12621586 C9.92058816,3.21672185 9.92058816,22.6480707 11.8708886,22.9166667 Z"
             id="椭圆形" />
          <path
             d="M28.5239498,22.9166667 C32.0793213,22.9166667 40.5918367,19.7498268 40.5918367,13.0214413 C40.5918367,6.29305568 32.0793213,3.05291789 28.5239498,3.12621586 C26.5736494,3.21672185 26.5736494,22.6480707 28.5239498,22.9166667 Z"
             id="椭圆形-copy-14"
             transform="translate(33.826531, 13.020833) scale(-1, 1) translate(-33.826531, -13.020833) " />
        </g>
      </g>
    </g>
  </g>
  <path
     style="fill:#b3b3b3;fill-opacity:1;fill-rule:nonzero;stroke-width:0.07261147"
     d="m 14.603599,39.679257 c -0.476081,-0.56579 -0.86801,-2.739031 -1.060168,-5.87862 -0.09455,-1.54485 -0.09455,-6.151966 0,-7.696815 0.189257,-3.092182 0.583627,-5.260935 1.047717,-5.761697 0.215022,-0.232012 0.505678,-0.247014 1.601209,-0.08264 3.136998,0.470668 6.456963,2.152379 8.426373,4.268335 1.43418,1.5409 2.168271,3.220487 2.259751,5.170272 0.125168,2.667777 -1.119777,5.090998 -3.606506,7.019877 -2.036827,1.579903 -5.06119,2.832106 -7.495901,3.103593 -0.961497,0.107213 -0.962638,0.107074 -1.172475,-0.142302 z"
     id="path4862"
     inkscape:connector-curvature="0" />
  <path
     style="fill:#b3b3b3;fill-opacity:1;fill-rule:nonzero;stroke-width:0.07261147"
     d="M 41.144246,39.819104 C 38.886033,39.55704 35.79038,38.291266 33.909554,36.860928 31.956005,35.375286 30.719238,33.608366 30.26815,31.658599 c -0.197977,-0.85573 -0.183838,-2.536558 0.02847,-3.384951 0.674956,-2.697109 2.76678,-4.981394 6.009109,-6.561987 1.597025,-0.778528 2.975372,-1.22314 4.501911,-1.452179 1.095532,-0.164371 1.386187,-0.149369 1.601209,0.08264 0.374883,0.404506 0.717316,1.969729 0.951554,4.349447 0.164085,1.667004 0.189629,8.266495 0.03891,10.053014 -0.229162,2.716359 -0.608336,4.524482 -1.046651,4.991047 -0.169415,0.180335 -0.297502,0.189182 -1.208421,0.08347 z"
     id="path4864"
     inkscape:connector-curvature="0" />
  <path
     style="fill:#b3b3b3;fill-opacity:1;fill-rule:nonzero;stroke-width:0.07261147"
     d="m 45.391958,21.378806 c -0.240827,-0.189434 -0.252957,-0.493578 -0.02795,-0.700677 0.231022,-0.212631 4.549809,-3.007376 4.783934,-3.095748 0.288147,-0.108763 0.571161,0.09591 0.571161,0.413058 0,0.131223 -0.04084,0.28929 -0.09076,0.351259 -0.08259,0.102526 -4.379304,2.905819 -4.751277,3.099864 -0.215998,0.112678 -0.264301,0.105932 -0.485109,-0.06776 z"
     id="path4866"
     inkscape:connector-curvature="0" />
  <path
     style="fill:#b3b3b3;fill-opacity:1;fill-rule:nonzero;stroke-width:0.07261147"
     d="M 6.3232601,56.230302 C 3.6217129,55.833302 1.4381095,54.096613 0.49988948,51.598791 0.00334593,50.276843 0.03630573,51.934605 0.03630573,28.282166 0.03630573,5.0695961 0.01488259,6.3512803 0.42286557,5.155414 1.2968113,2.593733 3.5706752,0.70954415 6.2463036,0.32994618 6.6696372,0.26988682 12.628216,0.25351783 28.391083,0.2691116 l 21.565605,0.0213343 0.693464,0.19182145 c 1.286546,0.35587572 2.363909,0.97423665 3.267521,1.87541905 0.941491,0.9389588 1.567733,2.0303661 1.938629,3.3786193 l 0.199749,0.7261147 V 28.282166 50.101911 l -0.193084,0.698441 c -0.760164,2.749736 -2.709249,4.647271 -5.489974,5.344771 -0.452842,0.113588 -2.080138,0.123584 -22.054522,0.135474 -11.918465,0.0071 -21.7577844,-0.01541 -21.9952109,-0.05029 z M 49.775159,55.145457 c 2.412118,-0.380568 4.258543,-2.037824 5.026544,-4.511568 l 0.165159,-0.531978 0.0214,-21.456688 C 55.0035,13.374158 54.986734,7.026831 54.930109,6.627616 54.621709,4.4533392 53.158806,2.5913486 51.116428,1.7735406 49.962634,1.311539 51.545406,1.3395453 27.773885,1.3605061 L 6.0993631,1.3796178 5.4095541,1.6138835 C 3.2547835,2.3456639 1.6661096,4.1093231 1.2382969,6.244586 1.1328068,6.771099 1.123778,8.8578828 1.1418476,28.536306 l 0.019936,21.710828 0.2450012,0.707491 c 0.7560386,2.183218 2.4856229,3.703753 4.7288842,4.157319 0.3830915,0.07746 4.492222,0.09661 21.819745,0.101704 14.261407,0.0042 21.504442,-0.01844 21.819745,-0.06819 z"
     id="path4868"
     inkscape:connector-curvature="0" />
  <path
     style="fill:#b3b3b3;fill-opacity:1;fill-rule:nonzero;stroke-width:0.07261147"
     d="m 47.541301,30.457856 c -0.337271,-0.135497 -0.353493,-0.68865 -0.02535,-0.864269 0.09412,-0.05037 1.087789,-0.07703 2.871629,-0.07703 2.630888,0 2.732858,0.0052 2.872927,0.145222 0.144447,0.144448 0.191471,0.471993 0.08965,0.624481 -0.151966,0.227589 -0.390731,0.246822 -3.00749,0.242254 -1.450317,-0.0025 -2.710934,-0.03433 -2.801371,-0.07066 z"
     id="path4870"
     inkscape:connector-curvature="0" />
  <path
     style="fill:#b3b3b3;fill-opacity:1;fill-rule:nonzero;stroke-width:0.07261147"
     d="m 48.167623,40.038341 c -3.113693,-2.01918 -2.927386,-1.882942 -2.95394,-2.160101 -0.02906,-0.303337 0.151704,-0.519641 0.434265,-0.519641 0.146336,0 0.882243,0.438632 2.511995,1.497255 1.267764,0.82349 2.362207,1.547408 2.432095,1.608706 0.167307,0.146742 0.164061,0.54124 -0.0057,0.694887 -0.07303,0.06609 -0.216441,0.120171 -0.318683,0.120171 -0.117555,0 -0.889573,-0.456324 -2.100015,-1.241277 z"
     id="path4872"
     inkscape:connector-curvature="0" />
  <path
     style="fill:#b3b3b3;fill-opacity:1;fill-rule:nonzero;stroke-width:0.07261147"
     d="m 6.7931702,41.08668 c -0.1648205,-0.209535 -0.1457599,-0.412117 0.058049,-0.616958 0.065715,-0.06605 1.1558423,-0.793071 2.4225052,-1.615605 1.4565436,-0.945839 2.3706226,-1.495518 2.4869426,-1.495518 0.368953,0 0.602043,0.454289 0.383601,0.747633 -0.04992,0.06704 -1.151306,0.808474 -2.447523,1.647636 -1.5978506,1.034438 -2.4203643,1.52575 -2.554284,1.52575 -0.1273236,0 -0.2514638,-0.06857 -0.3492908,-0.192938 z"
     id="path4874"
     inkscape:connector-curvature="0" />
  <path
     style="fill:#b3b3b3;fill-opacity:1;fill-rule:nonzero;stroke-width:0.07261147"
     d="m 3.8291987,30.457856 c -0.3372708,-0.135497 -0.3534929,-0.68865 -0.025346,-0.864269 0.094123,-0.05037 1.0877889,-0.07703 2.8716286,-0.07703 2.6308883,0 2.732858,0.0052 2.8729264,0.145222 0.2089408,0.208941 0.1879794,0.53672 -0.046098,0.720845 -0.1859011,0.14623 -0.2666374,0.150363 -2.85,0.14589 -1.4622734,-0.0025 -2.7326734,-0.03433 -2.8231109,-0.07066 z"
     id="path4876"
     inkscape:connector-curvature="0" />
  <path
     style="fill:#b3b3b3;fill-opacity:1;fill-rule:nonzero;stroke-width:0.07261147"
     d="M 11.575654,21.469737 C 11.512519,21.442592 10.406098,20.734939 9.1169397,19.897175 7.5871969,18.903066 6.7512244,18.316651 6.7102799,18.208958 6.566455,17.83067 6.9661925,17.427594 7.3236521,17.590464 c 0.2565496,0.116892 4.5590559,2.915635 4.7480039,3.088535 0.225099,0.205981 0.212946,0.510322 -0.02795,0.699807 -0.200202,0.157479 -0.278086,0.17261 -0.468057,0.09093 z"
     id="path4878"
     inkscape:connector-curvature="0" />
</svg>
