<?xml version="1.0" encoding="UTF-8" standalone="no"?>
<svg
   xmlns:dc="http://purl.org/dc/elements/1.1/"
   xmlns:cc="http://creativecommons.org/ns#"
   xmlns:rdf="http://www.w3.org/1999/02/22-rdf-syntax-ns#"
   xmlns:svg="http://www.w3.org/2000/svg"
   xmlns="http://www.w3.org/2000/svg"
   xmlns:sodipodi="http://sodipodi.sourceforge.net/DTD/sodipodi-0.dtd"
   xmlns:inkscape="http://www.inkscape.org/namespaces/inkscape"
   width="57px"
   height="57px"
   viewBox="0 0 57 57"
   version="1.1"
   id="svg5663"
   sodipodi:docname="rightSignalLight_off.svg"
   inkscape:version="0.92.3 (2405546, 2018-03-11)">
  <metadata
     id="metadata5667">
    <rdf:RDF>
      <cc:Work
         rdf:about="">
        <dc:format>image/svg+xml</dc:format>
        <dc:type
           rdf:resource="http://purl.org/dc/dcmitype/StillImage" />
        <dc:title>分组 10</dc:title>
      </cc:Work>
    </rdf:RDF>
  </metadata>
  <sodipodi:namedview
     pagecolor="#ffffff"
     bordercolor="#666666"
     borderopacity="1"
     objecttolerance="10"
     gridtolerance="10"
     guidetolerance="10"
     inkscape:pageopacity="0"
     inkscape:pageshadow="2"
     inkscape:window-width="1853"
     inkscape:window-height="1010"
     id="namedview5665"
     showgrid="false"
     inkscape:zoom="13.77193"
     inkscape:cx="28.5"
     inkscape:cy="28.5"
     inkscape:window-x="67"
     inkscape:window-y="40"
     inkscape:window-maximized="1"
     inkscape:current-layer="svg5663" />
  <!-- Generator: Sketch 52.5 (67469) - http://www.bohemiancoding.com/sketch -->
  <title
     id="title5645">分组 10</title>
  <desc
     id="desc5647">Created with Sketch.</desc>
  <defs
     id="defs5654">
    <linearGradient
       x1="38.2573439%"
       y1="-273.455869%"
       x2="58.4547732%"
       y2="168.243099%"
       id="linearGradient-1">
      <stop
         stop-color="#0973FF"
         offset="0%"
         id="stop5649" />
      <stop
         stop-color="#09B2FF"
         offset="100%"
         id="stop5651" />
    </linearGradient>
  </defs>
  <g
     id="stella"
     stroke="none"
     stroke-width="1"
     fill="none"
     fill-rule="evenodd">
    <g
       id="05-操作主页"
       transform="translate(-538.000000, -651.000000)"
       fill-rule="nonzero">
      <g
         id="分组-10"
         transform="translate(538.000000, 651.000000)">
        <rect
           id="矩形-copy-11"
           stroke="#09A1FF"
           stroke-width="1.122"
           opacity="0.542736235"
           x="0.561"
           y="0.561"
           width="54.978"
           height="54.978"
           rx="6.732" />
        <g
           id="分组-6"
           transform="translate(29.500000, 28.000000) scale(-1, 1) translate(-29.500000, -28.000000) translate(16.000000, 16.000000)"
           fill="url(#linearGradient-1)">
          <polygon
             id="路径"
             points="10.125 6.54545455 27 6.54545455 27 17.4545455 10.125 17.4545455" />
          <polygon
             id="形状"
             points="0 12 14.625 24 14.625 0" />
        </g>
      </g>
    </g>
  </g>
  <path
     style="fill:#b3b3b3;fill-opacity:1;fill-rule:nonzero;stroke-width:0.07261147"
     d="M 28.427389,36.675832 V 33.43758 h -6.208281 -6.20828 v -5.44586 -5.44586 h 6.207533 6.207532 l 0.0189,-3.218684 0.0189,-3.218684 7.139682,5.859048 c 3.926825,3.222476 7.18281,5.904371 7.235523,5.959767 0.08068,0.08479 -1.011341,1.008159 -6.903112,5.837024 -3.849424,3.154968 -7.113578,5.829332 -7.253675,5.94303 l -0.254723,0.206725 z"
     id="path5688"
     inkscape:connector-curvature="0" />
  <path
     style="fill:#b3b3b3;fill-opacity:1;fill-rule:nonzero;stroke-width:0.07261147"
     d="M 6.6076433,56.045323 C 4.8025754,55.826099 3.3420719,55.131454 2.1397644,53.920307 1.2211342,52.994923 0.61825605,51.941639 0.23163184,50.586624 L 0.07261146,50.029299 0.05121862,28.427389 C 0.03557219,12.628052 0.05191321,6.6699035 0.11205321,6.2463036 0.55996785,3.0913888 3.0333032,0.60285221 6.2082803,0.11260913 6.6142144,0.04992949 12.261965,0.03413328 28.391083,0.05056598 l 21.638216,0.02204548 0.557325,0.15902038 c 2.509505,0.71603252 4.374233,2.46666296 5.128676,4.81486496 0.356894,1.1108326 0.340751,0.015234 0.340751,23.1267512 v 21.710828 l -0.198789,0.720932 c -0.722624,2.620676 -2.636714,4.528675 -5.274745,5.257959 l -0.698441,0.193084 -21.529299,0.0079 c -11.841115,0.0043 -21.6273248,-0.004 -21.7471337,-0.01859 z m 43.8210187,-1.24584 c 2.164065,-0.665182 3.709608,-2.210531 4.371375,-4.370821 l 0.166825,-0.544586 0.0214,-21.456687 C 55.0035,13.156324 54.986734,6.8089966 54.930109,6.4097816 54.600064,4.0829012 53.01683,2.1999024 50.719108,1.4014809 L 50.029299,1.1617834 28.318471,1.1418476 C 8.6400484,1.123778 6.5532646,1.1328068 6.0267516,1.2382969 3.6576621,1.7129581 1.7129581,3.6576621 1.2382969,6.0267516 1.1328068,6.5532646 1.123778,8.6400484 1.1418476,28.318471 l 0.019936,21.710828 0.2396975,0.689809 c 0.7713903,2.219931 2.5168512,3.747634 4.7704936,4.175344 0.4164103,0.07903 4.4127543,0.09429 22.1101913,0.08445 l 21.60191,-0.01202 z"
     id="path5690"
     inkscape:connector-curvature="0" />
</svg>
