<?xml version="1.0" encoding="UTF-8"?>
<svg width="45px" height="45px" viewBox="0 0 45 45" version="1.1" xmlns="http://www.w3.org/2000/svg" xmlns:xlink="http://www.w3.org/1999/xlink">
    <!-- Generator: Sketch 52.5 (67469) - http://www.bohemiancoding.com/sketch -->
    <title>分组 11</title>
    <desc>Created with Sketch.</desc>
    <defs>
        <linearGradient x1="38.2573439%" y1="-273.455869%" x2="58.4547732%" y2="168.243099%" id="linearGradient-1">
            <stop stop-color="#0973FF" offset="0%"></stop>
            <stop stop-color="#09B2FF" offset="100%"></stop>
        </linearGradient>
    </defs>
    <g id="stella" stroke="none" stroke-width="1" fill="none" fill-rule="evenodd" opacity="0.500252">
        <g id="08-工作交互" transform="translate(-862.000000, -343.000000)" fill-rule="nonzero">
            <g id="分组-11" transform="translate(862.000000, 343.000000)">
                <g id="xitongguzhang" transform="translate(10.880000, 9.000000)" fill="url(#linearGradient-1)">
                    <path d="M18.191338,13.9662754 L16.6776187,15.3723655 L15.5752117,14.4700306 L14.2368016,13.2768047 L16.6374,10.9157188 C19.3331054,11.9955282 22.1296916,11.5575552 24.0118655,10.0585343 C25.859925,8.58423642 25.859925,5.68564221 25.859925,5.68564221 L24.3801611,5.15476758 L21.5360438,7.80104584 L17.3884573,4.02153755 L20.2522549,1.35807586 L19.6675728,0.00128583529 C19.6675728,0.00128583529 16.802122,0.00128583529 14.8913976,1.74435247 C13.1157636,3.36336522 12.5534323,6.02682692 13.8041878,8.43472885 L11.3132005,10.6684293 L7.72797717,7.47076151 L7.51521522,5.23127478 L4.15880951,3.24249671 L3.21199973,4.11359167 L2.26690679,4.98547567 L1.31920679,5.85657064 L3.4792875,8.947368 L5.76368071,9.1306872 L9.43932473,12.3497466 L0.0469271739,20.7716756 C0.0469271739,20.7716756 -0.223985054,22.3192076 0.873080707,23.3291728 C1.75735272,24.1427266 3.36222391,23.9759771 3.36222391,23.9759771 L12.4782726,15.010023 L13.7997049,16.1680053 L14.7813921,17.0662197 L12.899409,18.8429226 C15.5995337,21.3272733 18.2988,23.8132605 20.9988611,26.2992477 C23.7794234,25.6105368 25.3826095,23.8362594 26.293588,21.4241785 C23.5907927,18.936584 20.8906361,16.4505968 18.1913698,13.9663046 L18.191338,13.9662754 Z M3.58023179,22.1417623 C3.14755435,22.5419493 2.4438375,22.5468296 2.00572337,22.1491559 C1.56938967,21.7506346 1.56579701,21.1013462 1.99767962,20.6977985 C2.42949864,20.2942508 3.13496413,20.2902179 3.57304647,20.6904049 C4.00845815,21.0898321 4.01478505,21.7373963 3.5802,22.1417623 L3.58023179,22.1417623 Z M21.2355954,24.3851942 L15.0941446,18.7311134 L16.0043283,17.8936547 L22.3639141,23.7515696 L21.2356272,24.385165 L21.2355954,24.3851942 Z M23.3993641,22.7966616 L17.0397783,16.9412599 L17.9508204,16.1013464 L24.091381,21.7554272 L23.3993641,22.7966616 Z" id="形状"></path>
                </g>
                <rect id="矩形-copy-8" stroke="#09A1FF" stroke-width="0.8976" opacity="0.542736235" x="0.4488" y="0.4488" width="43.9824" height="43.9824" rx="5.3856"></rect>
            </g>
        </g>
    </g>
</svg>