<?xml version="1.0" encoding="UTF-8"?>
<svg width="57px" height="57px" viewBox="0 0 57 57" version="1.1" xmlns="http://www.w3.org/2000/svg" xmlns:xlink="http://www.w3.org/1999/xlink">
    <!-- Generator: Sketch 52.5 (67469) - http://www.bohemiancoding.com/sketch -->
    <title>分组</title>
    <desc>Created with Sketch.</desc>
    <defs>
        <linearGradient x1="38.2573439%" y1="-273.455869%" x2="58.4547732%" y2="168.243099%" id="linearGradient-1">
            <stop stop-color="#0973FF" offset="0%"></stop>
            <stop stop-color="#09B2FF" offset="100%"></stop>
        </linearGradient>
    </defs>
    <g id="stella" stroke="none" stroke-width="1" fill="none" fill-rule="evenodd">
        <g id="05-操作主页" transform="translate(-611.000000, -651.000000)" fill-rule="nonzero">
            <g id="分组" transform="translate(611.000000, 651.000000)">
                <g id="xitongguzhang" transform="translate(11.000000, 11.000000)" fill="url(#linearGradient-1)">
                    <path d="M22.9076109,17.5871616 L21.0014458,19.3577936 L19.6132295,18.22152 L17.9278243,16.7189392 L20.9508,13.74572 C24.345392,15.10548 27.867019,14.5539584 30.2371639,12.6663024 C32.56435,10.8097792 32.56435,7.1596976 32.56435,7.1596976 L30.7009437,6.4911888 L27.1194625,9.8235392 L21.8965759,5.0641584 L25.5028395,1.7101696 L24.7665732,0.0016192 C24.7665732,0.0016192 21.1582277,0.0016192 18.7521303,2.196592 C16.5161467,4.2353488 15.8080259,7.5893376 17.3830513,10.6215104 L14.2462525,13.4343184 L9.73152681,9.4076256 L9.46360435,6.5875312 L5.23701938,4.083144 L4.0447404,5.1800784 L2.85462337,6.2780064 L1.66122337,7.3749408 L4.381325,11.267056 L7.2579683,11.4979024 L11.8865571,15.5515328 L0.0590934783,26.1569248 C0.0590934783,26.1569248 -0.282055254,28.1056688 1.09943496,29.3774768 C2.21296268,30.401952 4.23391159,30.1919712 4.23391159,30.1919712 L15.7133803,18.9015104 L17.3774062,20.3597104 L18.6136049,21.4907952 L16.2437002,23.7281248 C19.6438572,26.8565664 23.0429333,29.9870688 26.4430103,33.1175712 C29.9444591,32.2503056 31.9632861,30.0160304 33.1104442,26.9785952 C29.7069241,23.8460688 26.306727,20.7155664 22.9076509,17.5871984 L22.9076109,17.5871616 Z M4.50844004,27.8822192 C3.96358696,28.3861584 3.077425,28.392304 2.52572572,27.8915296 C1.97626848,27.389688 1.97174438,26.5720656 2.51559656,26.0638944 C3.05936866,25.5557232 3.94773261,25.5506448 4.49939185,26.054584 C5.04768804,26.5575664 5.05565525,27.3730176 4.5084,27.8822192 L4.50844004,27.8822192 Z M26.7411201,30.7072816 L19.0074413,23.587328 L20.1535986,22.5327504 L28.1619659,29.909384 L26.7411601,30.7072448 L26.7411201,30.7072816 Z M29.4658659,28.7069072 L21.4574986,21.3334384 L22.6047368,20.2757696 L30.3372946,27.3957232 L29.4658659,28.7069072 Z" id="形状"></path>
                </g>
                <rect id="矩形-copy-8" stroke="#09A1FF" stroke-width="1.122" opacity="0.542736235" x="0.561" y="0.561" width="54.978" height="54.978" rx="6.732"></rect>
            </g>
        </g>
    </g>
</svg>