<?xml version="1.0" encoding="UTF-8"?>
<svg width="57px" height="57px" viewBox="0 0 57 57" version="1.1" xmlns="http://www.w3.org/2000/svg" xmlns:xlink="http://www.w3.org/1999/xlink">
    <!-- Generator: Sketch 52.5 (67469) - http://www.bohemiancoding.com/sketch -->
    <title>分组 14</title>
    <desc>Created with Sketch.</desc>
    <defs>
        <linearGradient x1="45.3144688%" y1="-162.022512%" x2="57.7740587%" y2="135.620076%" id="linearGradient-1">
            <stop stop-color="#0973FF" offset="0%"></stop>
            <stop stop-color="#09B2FF" offset="100%"></stop>
        </linearGradient>
    </defs>
    <g id="stella" stroke="none" stroke-width="1" fill="none" fill-rule="evenodd">
        <g id="05-操作主页" transform="translate(-320.000000, -651.000000)" fill-rule="nonzero">
            <g id="分组-14" transform="translate(320.000000, 651.000000)">
                <rect id="矩形-copy-7" stroke="#09A1FF" stroke-width="1.122" opacity="0.542736235" x="0.561" y="0.561" width="54.978" height="54.978" rx="6.732"></rect>
                <g id="分组-12" transform="translate(14.000000, 13.000000)" fill="url(#linearGradient-1)">
                    <path d="M15.1492489,22.8283449 C15.9944185,22.8283449 16.680315,22.2612114 16.680315,20.996779 C16.680315,19.7323466 15.6138626,18.2494302 15.1492489,18.2494302 C14.6846351,18.2494302 13.619685,19.7323466 13.619685,20.996779 C13.619685,22.2612114 14.3040792,22.8283449 15.1492489,22.8283449 Z" id="椭圆形"></path>
                    <path d="M9.03679738,22.0931196 C9.87032272,22.0814753 10.5548044,21.4968568 10.5727186,20.2145101 C10.5906329,18.9321635 9.55988323,17.4429303 9.10167072,17.4493315 C8.6434582,17.4557327 7.57217066,18.9743311 7.55425638,20.2566778 C7.53634211,21.5390245 8.20327205,22.1047638 9.03679738,22.0931196 Z" id="椭圆形-copy-19" transform="translate(9.063426, 19.771303) rotate(45.000000) translate(-9.063426, -19.771303) "></path>
                    <path d="M9.540856,29.6369942 C10.3827575,29.6289054 11.0715834,29.0529524 11.0840277,27.7834922 C11.096472,26.5140319 10.048738,25.0354255 9.58592081,25.0398721 C9.12310366,25.0443188 8.0476769,26.5433241 8.0352326,27.8127843 C8.0227883,29.0822445 8.69895447,29.645083 9.540856,29.6369942 Z" id="椭圆形-copy-22" transform="translate(9.559601, 27.338471) rotate(22.000000) translate(-9.559601, -27.338471) "></path>
                    <path d="M20.8500888,29.6369942 C21.6919903,29.6289054 22.3808162,29.0529524 22.3932605,27.7834922 C22.4057048,26.5140319 21.3579707,25.0354255 20.8951536,25.0398721 C20.4323364,25.0443188 19.3569096,26.5433241 19.3444653,27.8127843 C19.332021,29.0822445 20.0081872,29.645083 20.8500888,29.6369942 Z" id="椭圆形-copy-23" transform="translate(20.868833, 27.338471) scale(-1, 1) rotate(22.000000) translate(-20.868833, -27.338471) "></path>
                    <path d="M2.96255893,27.9782404 C3.79366329,27.9668506 4.4760046,27.3807681 4.49352741,26.0946968 C4.51105021,24.8086255 3.48289626,23.3147031 3.02601463,23.3209644 C2.569133,23.3272257 1.50135511,24.8498717 1.4838323,26.135943 C1.4663095,27.4220143 2.13145458,27.9896303 2.96255893,27.9782404 Z" id="椭圆形-copy-21" transform="translate(2.988621, 25.649677) rotate(51.000000) translate(-2.988621, -25.649677) "></path>
                    <path d="M27.2203568,27.9782404 C28.0514611,27.9668506 28.7338025,27.3807681 28.7513253,26.0946968 C28.7688481,24.8086255 27.7406941,23.3147031 27.2838125,23.3209644 C26.8269309,23.3272257 25.759153,24.8498717 25.7416302,26.135943 C25.7241074,27.4220143 26.3892524,27.9896303 27.2203568,27.9782404 Z" id="椭圆形-copy-24" transform="translate(27.246419, 25.649677) scale(-1, 1) rotate(51.000000) translate(-27.246419, -25.649677) "></path>
                    <path d="M21.2887024,22.0931196 C22.1222277,22.0814753 22.8067094,21.4968568 22.8246237,20.2145101 C22.8425379,18.9321635 21.8117882,17.4429303 21.3535757,17.4493315 C20.8953632,17.4557327 19.8240757,18.9743311 19.8061614,20.2566778 C19.7882471,21.5390245 20.4551771,22.1047638 21.2887024,22.0931196 Z" id="椭圆形-copy-20" transform="translate(21.315331, 19.771303) scale(-1, 1) rotate(45.000000) translate(-21.315331, -19.771303) "></path>
                    <path d="M15.1492489,30.6125 C15.9944185,30.6125 16.680315,30.0453665 16.680315,28.7809341 C16.680315,27.5165017 15.6138626,26.0335852 15.1492489,26.0335852 C14.6846351,26.0335852 13.619685,27.5165017 13.619685,28.7809341 C13.619685,30.0453665 14.3040792,30.6125 15.1492489,30.6125 Z" id="椭圆形-copy-18"></path>
                    <path d="M21.1412156,3.02661996 L9.14645669,3.02661996 L9.14645669,6.43528489 L12.9738663,9.06740198 C13.3985134,9.35943262 13.4993121,9.9309291 13.1990066,10.3438751 C12.8987011,10.7568211 12.3110109,10.8548423 11.8863638,10.5628117 L7.66097315,7.65700226 C7.41137898,7.48535586 7.26299213,7.20657481 7.26299213,6.90929741 L7.26299213,3.02661996 L1.7878903,3.02661996 C0.910922705,3.02661996 0.2,2.31569725 0.2,1.43872965 L0.2,0.3875 L29.8645669,0.3875 L29.8645669,1.43872965 C29.8645669,2.31569725 29.1536442,3.02661996 28.2766766,3.02661996 L23.0246802,3.02661996 L23.0246802,6.90929741 C23.0246802,7.20657481 22.8762933,7.48535586 22.6266991,7.65700226 L18.4013085,10.5628117 C17.9766614,10.8548423 17.3889712,10.7568211 17.0886657,10.3438751 C16.7883601,9.9309291 16.8891589,9.35943262 17.313806,9.06740198 L21.1412156,6.43528489 L21.1412156,3.02661996 Z" id="合并形状"></path>
                    <path d="M14.3259843,12.1844495 L14.3259843,8.19024746 C14.3259843,7.61443305 14.7476122,7.14764323 15.2677165,7.14764323 C15.7878209,7.14764323 16.2094488,7.61443305 16.2094488,8.19024746 L16.2094488,12.1844495 L19.0947869,12.1844495 C19.9717545,12.1844495 20.6826772,12.8953722 20.6826772,13.7723398 L20.6826772,15.6186355 L9.38188976,15.6186355 L9.38188976,13.7723398 C9.38188976,12.8953722 10.0928125,12.1844495 10.9697801,12.1844495 L14.3259843,12.1844495 Z" id="合并形状"></path>
                </g>
            </g>
        </g>
    </g>
</svg>