<?xml version="1.0" encoding="UTF-8"?>
<svg width="58px" height="59px" viewBox="0 0 58 59" version="1.1" xmlns="http://www.w3.org/2000/svg" xmlns:xlink="http://www.w3.org/1999/xlink">
    <!-- Generator: Sketch 52.5 (67469) - http://www.bohemiancoding.com/sketch -->
    <title>编组 7</title>
    <desc>Created with Sketch.</desc>
    <defs>
        <linearGradient x1="12.2042411%" y1="0%" x2="80.8370536%" y2="100%" id="linearGradient-1">
            <stop stop-color="#FAD961" offset="0%"></stop>
            <stop stop-color="#F76B1C" offset="100%"></stop>
        </linearGradient>
    </defs>
    <g id="stella" stroke="none" stroke-width="1" fill="none" fill-rule="evenodd">
        <g id="09-任务报告" transform="translate(-53.000000, -651.000000)">
            <g id="分组-12" transform="translate(41.000000, 638.000000)">
                <g id="编组-7" transform="translate(12.247200, 13.880160)">
                    <circle id="椭圆形" fill="url(#linearGradient-1)" cx="28.5768" cy="28.5768" r="28.5768"></circle>
                    <path d="M35.1475193,22.0782471 L35.1475193,17.8966316 L35.1475193,17.896633 C35.1430507,16.2124762 33.7758678,14.8495525 32.0909212,14.8495818 L30.3153291,14.8495818 L30.3153291,14.2823084 C30.3153291,13.8347441 29.952333,13.47192 29.5045564,13.47192 L27.5019467,13.47192 C27.0541701,13.47192 26.691174,13.8347441 26.691174,14.2823084 C26.691174,14.2823084 26.691174,14.2823084 26.691174,14.2823084 L26.691174,14.8495818 L24.8912582,14.8495818 C23.2094645,14.854034 21.8471949,16.2156451 21.8427622,17.896633 L21.8427622,22.0782485 L21.8427617,22.0782489 C16.4894806,25.7505311 15.1281386,33.0651381 18.8021621,38.4158819 C22.4761857,43.7666257 29.7942612,45.1273224 35.1475423,41.4550403 C40.5008234,37.7827581 41.8621654,30.4681511 38.1881419,25.1174073 C37.3701654,23.9261235 36.339391,22.8958377 35.1475423,22.0782489 L35.1475193,22.0782471 Z M25.6533808,41.3249691 L26.6425238,33.3426451 L22.7670363,33.3426451 L31.3287987,22.1592874 L30.3396557,30.1416114 L34.2313765,30.1416114 L25.6534101,41.3249691 L25.6533808,41.3249691 Z" id="形状" fill="#FFFFFF" fill-rule="nonzero"></path>
                </g>
            </g>
        </g>
    </g>
</svg>