<?xml version="1.0" encoding="UTF-8"?>
<svg width="58px" height="59px" viewBox="0 0 58 59" version="1.1" xmlns="http://www.w3.org/2000/svg" xmlns:xlink="http://www.w3.org/1999/xlink">
    <!-- Generator: Sketch 52.5 (67469) - http://www.bohemiancoding.com/sketch -->
    <title>编组 5</title>
    <desc>Created with Sketch.</desc>
    <defs>
        <linearGradient x1="84.1294643%" y1="117.477679%" x2="24.0122768%" y2="-10.5022321%" id="linearGradient-1">
            <stop stop-color="#08A6FF" offset="0%"></stop>
            <stop stop-color="#27CCFF" offset="100%"></stop>
        </linearGradient>
    </defs>
    <g id="stella" stroke="none" stroke-width="1" fill="none" fill-rule="evenodd">
        <g id="09-任务报告" transform="translate(-260.000000, -651.000000)">
            <g id="分组-12" transform="translate(41.000000, 638.000000)">
                <g id="编组-5" transform="translate(219.247200, 13.880160)">
                    <circle id="椭圆形复制" fill="url(#linearGradient-1)" cx="28.5768" cy="28.5768" r="28.5768"></circle>
                    <path d="M28.5618031,11.9240861 L28.5584809,11.920608 L28.5618031,11.9240861 L28.5584809,11.920608 L28.5584809,12.1609296 L28.5584809,11.920608 L28.5553249,11.9240861 L28.5553249,11.920608 L28.5518365,11.9240861 L28.5518365,11.9275642 C28.2850659,12.1986923 16.0715739,24.6901359 16.5041182,32.5503341 C16.5277057,39.3643033 21.9044678,44.8778027 28.5348663,44.8778027 L28.582041,44.8778027 C35.2094351,44.8778027 40.5863761,39.3643033 40.6127891,32.5503341 C41.0455018,24.690103 28.8322043,12.198693 28.5617691,11.9240747 L28.5618031,11.9240861 Z M38.2997789,32.188621 L38.2933007,32.188621 C38.2839986,37.50121 34.0819611,41.8048024 28.9025225,41.8048024 L28.8586698,41.8048024 C23.6760617,41.8048024 19.4773342,37.5013746 19.4678916,32.188621 L19.4614134,32.188621 C19.1004579,25.9496976 28.8711428,15.5096944 28.8711428,15.5096944 L28.8772888,15.5161537 L28.8772888,15.52576 L28.8837671,15.5193006 L28.8899131,15.52576 L28.8899131,15.5161537 L28.8960591,15.5096944 C28.8932353,15.5095287 38.7101041,25.9053215 38.2998126,32.188621 L38.2997789,32.188621 Z" id="形状" fill="#FFFFFF" fill-rule="nonzero"></path>
                    <path d="M20.1670899,33.9212176 C20.1670899,38.7546567 23.9860988,42.6719993 28.6984252,42.6719993 C32.6606251,42.6719993 35.9666954,39.5978354 36.925781,35.8429527 C34.9582209,34.2981708 30.0178158,34.7064342 30.0178158,34.7064342 C26.0277173,34.7064342 22.7316179,32.8547494 20.6150528,31.1078884 L20.6150529,31.107888 C20.3177995,32.0162153 20.1665981,32.9657321 20.167057,33.9211909 L20.1670899,33.9212176 Z" id="路径" fill="#FFFFFF" fill-rule="nonzero" opacity="0.5"></path>
                </g>
            </g>
        </g>
    </g>
</svg>