<?xml version="1.0" encoding="UTF-8"?>
<svg width="58px" height="59px" viewBox="0 0 58 59" version="1.1" xmlns="http://www.w3.org/2000/svg" xmlns:xlink="http://www.w3.org/1999/xlink">
    <!-- Generator: Sketch 52.5 (67469) - http://www.bohemiancoding.com/sketch -->
    <title>编组 6</title>
    <desc>Created with Sketch.</desc>
    <defs>
        <linearGradient x1="30.2734375%" y1="0%" x2="73.6551339%" y2="100%" id="linearGradient-1">
            <stop stop-color="#B4EC51" offset="0%"></stop>
            <stop stop-color="#429321" offset="100%"></stop>
        </linearGradient>
    </defs>
    <g id="stella" stroke="none" stroke-width="1" fill="none" fill-rule="evenodd">
        <g id="09-任务报告" transform="translate(-467.000000, -651.000000)">
            <g id="分组-12" transform="translate(41.000000, 638.000000)">
                <g id="编组-6" transform="translate(426.247200, 13.880160)">
                    <circle id="椭圆形复制-2" fill="url(#linearGradient-1)" cx="28.5768" cy="28.5768" r="28.5768"></circle>
                    <path d="M32.5142434,17.2046856 L32.5142434,14.2884 L24.600668,14.2884 L24.600668,17.2046856 L17.14608,17.2046856 L17.14608,20.00376 L40.00752,20.00376 L40.00752,17.2046856 L32.5142434,17.2046856 Z M17.96256,22.04496 L19.6417254,42.8652 L37.1036346,42.8652 L38.7828,22.04496 L17.96256,22.04496 Z M25.31088,38.7828 L22.9581565,38.7828 L22.4532,25.71912 L25.3090098,25.71912 L25.3090098,38.7828 L25.31088,38.7828 Z M29.7982671,38.7828 L27.35208,38.7828 L27.35208,25.71912 L29.80152,25.71912 L29.80152,38.7828 L29.7982671,38.7828 Z M34.2062557,38.7828 L31.84272,38.7828 L31.84272,25.71912 L34.7004,25.71912 L34.2098891,38.7828 L34.2062557,38.7828 Z" id="形状" fill="#FFFFFF" fill-rule="nonzero"></path>
                </g>
            </g>
        </g>
    </g>
</svg>