<?xml version="1.0" encoding="UTF-8"?>
<svg width="45px" height="45px" viewBox="0 0 45 45" version="1.1" xmlns="http://www.w3.org/2000/svg" xmlns:xlink="http://www.w3.org/1999/xlink">
    <!-- Generator: Sketch 52.5 (67469) - http://www.bohemiancoding.com/sketch -->
    <title>分组 10</title>
    <desc>Created with Sketch.</desc>
    <defs>
        <linearGradient x1="38.2573439%" y1="-273.455869%" x2="58.4547732%" y2="168.243099%" id="linearGradient-1">
            <stop stop-color="#0973FF" offset="0%"></stop>
            <stop stop-color="#09B2FF" offset="100%"></stop>
        </linearGradient>
    </defs>
    <g id="stella" stroke="none" stroke-width="1" fill="none" fill-rule="evenodd">
        <g id="07-工作" transform="translate(-926.000000, -343.000000)" fill-rule="nonzero">
            <g id="分组-10" transform="translate(926.000000, 343.000000)">
                <rect id="矩形-copy-8" stroke="#09A1FF" stroke-width="0.8976" opacity="0.542736235" x="0.4488" y="0.4488" width="43.9824" height="43.9824" rx="5.3856"></rect>
                <g id="fenzu" transform="translate(13.000000, 10.000000)" fill="url(#linearGradient-1)">
                    <path d="M0.0129205841,14.9496614 C0.0129205841,13.3735229 0.822118821,11.347718 2.26686254,8.92759016 C2.84216114,7.9650734 3.5103108,6.95528401 4.25288306,5.91505565 C5.15985371,4.65007706 6.11024617,3.41529167 7.10244216,2.21280203 C7.49660538,1.73305813 7.89766082,1.25874767 8.30548955,0.79001131 L8.40164829,0.680477178 L8.99372151,0.014970869 L9.58768483,0.680477178 L9.68360729,0.790241923 C9.75968375,0.87694683 9.84804582,0.979101825 9.94869356,1.09463149 C10.2654166,1.46452548 10.578635,1.83726487 10.8883086,2.21280203 C11.8799354,3.41566649 12.8302366,4.65043564 13.7376314,5.91505565 C14.4787861,6.95528399 15.1469357,7.9650734 15.7222343,8.92759016 C17.166978,11.347718 17.9761763,13.3735229 17.9761763,14.9496614 C17.9761763,19.9315042 13.9594816,23.9782715 8.99372151,23.9782715 C4.02985148,23.9782715 0.0129205841,19.9315042 0.0129205841,14.9496614 M8.32698942,3.18454272 C7.35697308,4.35995786 6.42839308,5.56738265 5.54287499,6.8047034 C4.82345641,7.81126442 4.17846045,8.78600288 3.62513425,9.71208513 C2.31198863,11.9096857 1.58808106,13.7238015 1.58808106,14.9496614 C1.58808106,19.0863619 4.90874708,22.4307272 8.99372151,22.4307272 C13.0803498,22.4307272 16.4012521,19.0863619 16.4012521,14.9496614 C16.4012521,13.7238015 15.6771082,11.9096857 14.3639626,9.71208513 C13.8106364,8.78600288 13.1656405,7.81126442 12.4478757,6.8047034 C11.5612805,5.56801116 10.6326467,4.36054204 9.66352501,3.18431213 C9.44156983,2.91677244 9.21829942,2.65027474 8.99372151,2.38482826 C8.78604699,2.63156832 8.56277915,2.89813979 8.32722568,3.18431213" id="形状"></path>
                    <path d="M8.9944303,21.2901887 C5.53413329,21.2901887 2.72804645,18.5260084 2.72804645,15.1129249 C2.72804645,11.7012249 5.98539418,13.4284052 8.9944303,15.1129249 C12.0174059,16.8048236 15.2608141,11.7012249 15.2608141,15.1129249 C15.2608141,18.5257778 12.4547273,21.2901887 8.9944303,21.2901887" id="路径"></path>
                </g>
            </g>
        </g>
    </g>
</svg>