<?xml version="1.0" encoding="UTF-8" standalone="no"?>
<svg
   xmlns:dc="http://purl.org/dc/elements/1.1/"
   xmlns:cc="http://creativecommons.org/ns#"
   xmlns:rdf="http://www.w3.org/1999/02/22-rdf-syntax-ns#"
   xmlns:svg="http://www.w3.org/2000/svg"
   xmlns="http://www.w3.org/2000/svg"
   xmlns:sodipodi="http://sodipodi.sourceforge.net/DTD/sodipodi-0.dtd"
   xmlns:inkscape="http://www.inkscape.org/namespaces/inkscape"
   t="1586485131037"
   class="icon"
   viewBox="0 0 957.59125 472.20773"
   version="1.1"
   p-id="8706"
   width="187.02954"
   height="92.228073"
   id="svg907"
   sodipodi:docname="car.svg"
   inkscape:version="0.92.3 (2405546, 2018-03-11)">
  <metadata
     id="metadata911">
    <rdf:RDF>
      <cc:Work
         rdf:about="">
        <dc:format>image/svg+xml</dc:format>
        <dc:type
           rdf:resource="http://purl.org/dc/dcmitype/StillImage" />
      </cc:Work>
    </rdf:RDF>
  </metadata>
  <sodipodi:namedview
     pagecolor="#ffffff"
     bordercolor="#666666"
     borderopacity="1"
     objecttolerance="10"
     gridtolerance="10"
     guidetolerance="10"
     inkscape:pageopacity="0"
     inkscape:pageshadow="2"
     inkscape:window-width="1853"
     inkscape:window-height="1007"
     id="namedview909"
     showgrid="false"
     inkscape:zoom="3.695"
     inkscape:cx="91.1948"
     inkscape:cy="35.008926"
     inkscape:window-x="67"
     inkscape:window-y="40"
     inkscape:window-maximized="1"
     inkscape:current-layer="svg907" />
  <defs
     id="defs893">
    <style
       type="text/css"
       id="style891" />
  </defs>
  <g
     id="g919"
     transform="translate(-45.082623,-385.31674)">
    <path
       id="path895"
       p-id="8707"
       d="m 236.03343,666.44965 c -52.68406,0 -95.55113,42.85504 -95.55113,95.52768 0,52.69106 42.86707,95.54712 95.55113,95.54712 52.68406,0 95.55114,-42.85606 95.55114,-95.54712 0,-52.67264 -42.86707,-95.52768 -95.55114,-95.52768 z"
       inkscape:connector-curvature="0"
       style="fill:#d81e06" />
    <path
       id="path897"
       p-id="8708"
       d="m 1001.5477,728.32488 -4.70432,-23.59232 c -2.57167,-13.87603 -9.00956,-17.69296 -17.48903,-21.77391 h -81.03084 c 16.6939,21.97857 26.7043,49.30392 26.7043,79.01766 0,6.83671 -0.68257,13.50866 -1.69364,20.05987 h 36.47932 c 36.79555,0.001 46.50001,-19.32514 41.73421,-53.7113 z"
       inkscape:connector-curvature="0"
       style="fill:#d81e06" />
    <path
       id="path899"
       p-id="8709"
       d="m 793.91325,666.44965 c -52.67281,0 -95.55114,42.85504 -95.55114,95.52768 0,52.69106 42.87731,95.54712 95.55114,95.54712 52.70555,0 95.55318,-42.85606 95.55318,-95.54712 0,-52.67264 -42.84865,-95.52768 -95.55318,-95.52768 z"
       inkscape:connector-curvature="0"
       style="fill:#d81e06" />
    <path
       id="path901"
       p-id="8710"
       d="m 162.91104,653.34826 c 16.91494,-11.40782 36.60418,-18.93526 57.87552,-21.41166 h 31.97045 v 0.14736 c 20.68393,2.65343 39.84717,10.14199 56.35686,21.2643 h 127.43971 284.00191 c 20.92953,-14.16256 46.17351,-22.44929 73.35673,-22.44929 27.18425,0 52.43948,8.28571 73.37823,22.44929 h 99.11239 L 955.46426,592.39094 C 946.50484,555.35237 927.84202,544.86245 877.72964,538.22938 810.54472,529.31127 695.84058,512.12894 695.84058,512.12894 641.38101,471.6408 595.37123,428.76325 512.58433,421.37703 L 507.1964,410.5617 c -0.52089,-1.06219 -9.64302,-25.24496 -39.36722,-25.24496 H 281.1703 c -29.44278,0 -36.9644,16.63179 -40.1071,23.39687 -2.58601,5.57088 -5.54042,11.99008 -5.54042,11.99008 C 148.28739,428.928 58.899884,516.51585 58.919328,556.28972 l 0.224113,97.05752 H 162.91104 Z m 715.53392,-73.93592 c 3.12224,0 34.65367,0 50.51967,0 2.81728,4.55167 4.5713,9.99873 6.20457,16.67273 l 6.44915,35.91702 h -25.36781 c -19.21338,0 -27.96915,-5.1022 -36.15287,-19.69352 l -8.9584,-17.99894 c -5.45957,-11.14278 3.10074,-14.89729 7.30569,-14.89729 z M 652.64808,522.55643 H 436.55461 414.74806 v -0.23025 H 294.1392 l 46.60946,-73.3997 132.63321,0.0614 c 83.78569,0 120.71427,27.97924 179.26621,73.56856 z M 259.87031,417.44753 c 2.51437,-5.41738 5.29071,-11.39656 21.29998,-11.39656 H 467.8302 c 12.89318,0 18.20436,7.81704 20.22445,12.4782 l 0.526,1.16452 0.219,0.439 c -48.61727,0 -157.01041,0.0194 -230.09289,-0.16476 z m -12.93923,31.47895 52.48962,0.0614 -46.61969,73.33831 h -75.78003 v 0.23025 h -60.71223 c 17.34679,-25.36572 75.6736,-73.62995 130.62233,-73.62995 z M 79.644194,579.41234 h 36.102736 c 9.87736,0 17.90861,10.61169 8.54087,22.59051 -4.19368,5.34575 -24.428367,29.83552 -24.428367,29.83552 H 79.522416 Z"
       inkscape:connector-curvature="0"
       style="fill:#d81e06" />
    <path
       id="path903"
       p-id="8711"
       d="m 54.827977,682.95967 c -5.20373,7.42716 -9.357505,15.50821 -9.622552,30.61118 l -0.122802,21.71252 c 0,29.71271 23.092897,34.18252 61.245397,44.77373 -0.81663,-5.91778 -1.38766,-11.93789 -1.38766,-18.08079 0,-29.69328 9.87737,-57.05956 26.52009,-79.01766 H 54.827977 Z"
       inkscape:connector-curvature="0"
       style="fill:#d81e06" />
    <path
       id="path905"
       p-id="8712"
       d="m 340.50408,682.95967 c 16.67343,21.95811 26.62243,49.30392 26.62243,79.01766 0,6.83671 -0.6836,13.4882 -1.68341,20.01894 l 299.083,0.0205 c -1.01107,-6.55121 -1.69365,-13.2027 -1.69365,-20.03941 0,-29.71374 10.0104,-57.03909 26.68383,-79.01766 z"
       inkscape:connector-curvature="0"
       style="fill:#d81e06" />
  </g>
</svg>
