<?xml version="1.0" encoding="UTF-8" standalone="no"?>
<svg
   xmlns:dc="http://purl.org/dc/elements/1.1/"
   xmlns:cc="http://creativecommons.org/ns#"
   xmlns:rdf="http://www.w3.org/1999/02/22-rdf-syntax-ns#"
   xmlns:svg="http://www.w3.org/2000/svg"
   xmlns="http://www.w3.org/2000/svg"
   xmlns:sodipodi="http://sodipodi.sourceforge.net/DTD/sodipodi-0.dtd"
   xmlns:inkscape="http://www.inkscape.org/namespaces/inkscape"
   t="1575618789223"
   class="icon"
   viewBox="0 0 1024 1024"
   version="1.1"
   p-id="4678"
   width="200"
   height="200"
   id="svg2163"
   sodipodi:docname="previous.svg"
   inkscape:version="0.92.3 (2405546, 2018-03-11)">
  <metadata
     id="metadata2167">
    <rdf:RDF>
      <cc:Work
         rdf:about="">
        <dc:format>image/svg+xml</dc:format>
        <dc:type
           rdf:resource="http://purl.org/dc/dcmitype/StillImage" />
        <dc:title></dc:title>
      </cc:Work>
    </rdf:RDF>
  </metadata>
  <sodipodi:namedview
     pagecolor="#ffffff"
     bordercolor="#666666"
     borderopacity="1"
     objecttolerance="10"
     gridtolerance="10"
     guidetolerance="10"
     inkscape:pageopacity="0"
     inkscape:pageshadow="2"
     inkscape:window-width="1853"
     inkscape:window-height="1010"
     id="namedview2165"
     showgrid="false"
     inkscape:zoom="1.18"
     inkscape:cx="61.864407"
     inkscape:cy="100"
     inkscape:window-x="67"
     inkscape:window-y="40"
     inkscape:window-maximized="1"
     inkscape:current-layer="svg2163" />
  <defs
     id="defs2159">
    <style
       type="text/css"
       id="style2157" />
  </defs>
  <path
     d="m 54.243998,1020.4063 59.521612,-0.1864 c 27.99993,-0.088 50.61912,-21.10122 50.52411,-46.93358 l -1.39095,-378.14369 c 5.80236,4.42679 12.21078,8.66096 19.24801,12.65297 l 698.47203,396.229 c 79.1742,44.9116 143.69549,11.5004 143.37999,-74.25433 L 1020.9189,92.439743 C 1020.6034,6.6850232 956.60361,-25.211167 878.70071,21.553843 L 179.83779,441.10193 c -6.34818,3.80967 -12.16167,7.81191 -17.46163,11.96618 L 160.9142,55.620783 C 160.8193,29.788403 138.04593,8.9188132 110.04602,9.0064732 l -59.521612,0.18638 C 22.526388,9.2804532 -0.09473168,30.292293 2.9831792e-4,56.124653 L 3.3757983,973.79195 c 0.0949,25.83238 22.8701897,46.70195 50.8681997,46.61435 z"
     p-id="4679"
     id="path2161"
     style="fill:#2a7fff;stroke-width:1.83849847"
     inkscape:connector-curvature="0" />
</svg>
