<?xml version="1.0" encoding="UTF-8" standalone="no"?>
<!-- Created with Inkscape (http://www.inkscape.org/) -->

<svg
   xmlns:dc="http://purl.org/dc/elements/1.1/"
   xmlns:cc="http://creativecommons.org/ns#"
   xmlns:rdf="http://www.w3.org/1999/02/22-rdf-syntax-ns#"
   xmlns:svg="http://www.w3.org/2000/svg"
   xmlns="http://www.w3.org/2000/svg"
   xmlns:sodipodi="http://sodipodi.sourceforge.net/DTD/sodipodi-0.dtd"
   xmlns:inkscape="http://www.inkscape.org/namespaces/inkscape"
   width="400"
   height="400"
   viewBox="0 0 105.83333 105.83334"
   version="1.1"
   id="svg8"
   inkscape:version="0.92.3 (2405546, 2018-03-11)"
   sodipodi:docname="state_on.svg">
  <defs
     id="defs2" />
  <sodipodi:namedview
     id="base"
     pagecolor="#ffffff"
     bordercolor="#666666"
     borderopacity="1.0"
     inkscape:pageopacity="0.0"
     inkscape:pageshadow="2"
     inkscape:zoom="0.35"
     inkscape:cx="-172.85714"
     inkscape:cy="560"
     inkscape:document-units="mm"
     inkscape:current-layer="layer1"
     showgrid="false"
     units="px"
     inkscape:window-width="1853"
     inkscape:window-height="1010"
     inkscape:window-x="67"
     inkscape:window-y="40"
     inkscape:window-maximized="1" />
  <metadata
     id="metadata5">
    <rdf:RDF>
      <cc:Work
         rdf:about="">
        <dc:format>image/svg+xml</dc:format>
        <dc:type
           rdf:resource="http://purl.org/dc/dcmitype/StillImage" />
        <dc:title></dc:title>
      </cc:Work>
    </rdf:RDF>
  </metadata>
  <g
     inkscape:label="Layer 1"
     inkscape:groupmode="layer"
     id="layer1"
     transform="translate(0,-191.16665)">
    <circle
       id="path10"
       cx="52.916668"
       cy="244.08333"
       style="fill:#999999;stroke-width:0.64995384"
       r="52.916668" />
    <path
       style="fill:#00ff00;fill-opacity:1;stroke-width:2.85714293"
       d="M 175.71429,397.30769 C 133.77904,391.54974 97.194494,374.36497 66.55568,346.0328 40.350974,321.80094 21.684556,293.15811 11.149171,261.01388 3.7894486,238.55882 2.8571429,231.69879 2.8571429,200 c 0,-31.69879 0.9323057,-38.55882 8.2920281,-61.01388 C 32.0775,75.132243 87.613077,23.306044 152.85714,6.7432249 164.00065,3.914342 182.85615,2.0286931 200,2.0286931 c 34.68524,0 57.38787,5.3479075 89.48194,21.0786659 45.05686,22.084415 83.20989,66.576475 99.36889,115.878761 7.47514,22.80725 8.27877,28.95865 8.15734,62.44245 -0.11943,32.96642 -1.0242,39.71297 -8.04554,60 -21.90786,63.29937 -74.3116,113.17063 -136.23425,129.65063 -25.41484,6.76386 -55.43348,9.1916 -77.01409,6.22849 z"
       id="path895"
       inkscape:connector-curvature="0"
       transform="matrix(0.26458333,0,0,0.26458333,0,191.16665)" />
  </g>
</svg>
