<?xml version="1.0" encoding="UTF-8" standalone="no"?>
<svg
   xmlns:dc="http://purl.org/dc/elements/1.1/"
   xmlns:cc="http://creativecommons.org/ns#"
   xmlns:rdf="http://www.w3.org/1999/02/22-rdf-syntax-ns#"
   xmlns:svg="http://www.w3.org/2000/svg"
   xmlns="http://www.w3.org/2000/svg"
   xmlns:sodipodi="http://sodipodi.sourceforge.net/DTD/sodipodi-0.dtd"
   xmlns:inkscape="http://www.inkscape.org/namespaces/inkscape"
   t="1575622917482"
   class="icon"
   viewBox="0 0 1024 1024"
   version="1.1"
   p-id="6006"
   width="200"
   height="200"
   id="svg871"
   sodipodi:docname="velocity_1.svg"
   inkscape:version="0.92.3 (2405546, 2018-03-11)">
  <metadata
     id="metadata875">
    <rdf:RDF>
      <cc:Work
         rdf:about="">
        <dc:format>image/svg+xml</dc:format>
        <dc:type
           rdf:resource="http://purl.org/dc/dcmitype/StillImage" />
      </cc:Work>
    </rdf:RDF>
  </metadata>
  <sodipodi:namedview
     pagecolor="#ffffff"
     bordercolor="#666666"
     borderopacity="1"
     objecttolerance="10"
     gridtolerance="10"
     guidetolerance="10"
     inkscape:pageopacity="0"
     inkscape:pageshadow="2"
     inkscape:window-width="1853"
     inkscape:window-height="1010"
     id="namedview873"
     showgrid="false"
     inkscape:zoom="4"
     inkscape:cx="99.752019"
     inkscape:cy="124.97025"
     inkscape:window-x="67"
     inkscape:window-y="40"
     inkscape:window-maximized="1"
     inkscape:current-layer="svg871" />
  <defs
     id="defs867">
    <style
       type="text/css"
       id="style865" />
  </defs>
  <text
     xml:space="preserve"
     style="font-style:normal;font-variant:normal;font-weight:bold;font-stretch:normal;font-size:436.90666665px;line-height:1.25;font-family:Waree;-inkscape-font-specification:'Waree Bold';letter-spacing:0px;word-spacing:0px;fill:#2a7fff;fill-opacity:1;stroke:none;stroke-width:5.11999989;"
     x="669.65625"
     y="479.78903"
     id="text946"><tspan
       sodipodi:role="line"
       id="tspan944"
       x="669.65625"
       y="660.98901"
       style="font-style:normal;font-variant:normal;font-weight:bold;font-stretch:normal;font-family:Waree;-inkscape-font-specification:'Waree Bold';fill:#2a7fff;stroke-width:5.11999989;" /></text>
  <text
     xml:space="preserve"
     style="font-style:normal;font-variant:normal;font-weight:bold;font-stretch:normal;font-size:204.80000305px;line-height:1.25;font-family:sans-serif;-inkscape-font-specification:'sans-serif Bold';letter-spacing:0px;word-spacing:0px;fill:#000000;fill-opacity:1;stroke:none;stroke-width:5.11999989"
     x="686.08002"
     y="291.84"
     id="text950"><tspan
       sodipodi:role="line"
       id="tspan948"
       x="686.08002"
       y="473.04001"
       style="stroke-width:5.11999989" /></text>
  <flowRoot
     xml:space="preserve"
     id="flowRoot956"
     style="fill:black;fill-opacity:1;stroke:none;font-family:Samanata;font-style:normal;font-weight:bold;font-size:40px;line-height:1.25;letter-spacing:0px;word-spacing:0px;-inkscape-font-specification:'Samanata Bold';font-stretch:normal;font-variant:normal"><flowRegion
       id="flowRegion958"><rect
         id="rect960"
         width="165"
         height="157"
         x="7"
         y="29" /></flowRegion><flowPara
       id="flowPara962" /></flowRoot>  <g
     id="g1396"
     transform="matrix(1.9648475,0,0,2.3466608,-748.41041,-855.921)"
     style="fill:#2a7fff">
    <text
       transform="scale(0.84521269,1.1831341)"
       id="text966"
       y="697.05328"
       x="395.11716"
       style="font-style:normal;font-variant:normal;font-weight:bold;font-stretch:normal;font-size:505.52496338px;line-height:1.25;font-family:Samanata;-inkscape-font-specification:'Samanata Bold';letter-spacing:0px;word-spacing:0px;fill:#2a7fff;fill-opacity:1;stroke:none;stroke-width:12.63812256"
       xml:space="preserve"><tspan
         style="stroke-width:12.63812256;fill:#2a7fff"
         y="697.05328"
         x="395.11716"
         id="tspan964"
         sodipodi:role="line">1X</tspan></text>
    <path
       transform="scale(5.12)"
       inkscape:connector-curvature="0"
       id="path968"
       d="m 125.78689,154.10694 c 0.48629,-1.2375 5.20015,-11.18203 10.47525,-22.09895 5.27511,-10.91692 9.5911,-20.41845 9.5911,-21.11451 0,-0.69607 -4.05,-9.68777 -9,-19.981553 -4.95,-10.293787 -9,-18.904755 -9,-19.135484 0,-0.230729 1.6875,-0.415209 3.75,-0.409955 l 3.75,0.0095 7.5,15.970632 c 4.125,8.783848 7.725,15.96786 8,15.96446 0.275,-0.003 3.875,-7.182779 8,-15.954195 l 7.5,-15.948028 3.75,-0.02599 c 2.0625,-0.01429 3.75,0.163606 3.75,0.39533 0,0.231724 -4.29478,9.394444 -9.54396,20.361599 l -9.54396,19.940284 10.48134,22.19284 10.48134,22.19284 -4.07757,-0.30444 -4.07757,-0.30443 -8.10981,-17.1897 c -4.4604,-9.45433 -8.44638,-17.51591 -8.85775,-17.91461 -0.41137,-0.3987 -4.66256,7.44916 -9.4471,17.4397 l -8.69916,18.16461 h -3.77815 c -3.51339,0 -3.71619,-0.15768 -2.894,-2.25 z"
       style="fill:#2a7fff;fill-opacity:1" />
    <path
       transform="scale(5.12)"
       inkscape:connector-curvature="0"
       id="path970"
       d="m 75.853238,151.85694 v -4.5 h 7 7 v -33 c 0,-18.150005 -0.338932,-33.000005 -0.753182,-33.000005 -0.414251,0 -3.789251,0.868237 -7.5,1.929416 l -6.746818,1.929417 v -4.772531 -4.772531 l 7.870293,-2.156886 c 4.328661,-1.186286 9.278661,-2.156885 11,-2.156885 h 3.129707 v 38.000005 38 h 6.500002 6.5 v 4.5 4.5 h -17.000002 -17 z"
       style="fill:#2a7fff;fill-opacity:1" />
  </g>
</svg>
