<?xml version="1.0" standalone="no"?><!DOCTYPE svg PUBLIC "-//W3C//DTD SVG 1.1//EN" "http://www.w3.org/Graphics/SVG/1.1/DTD/svg11.dtd"><svg t="1563767847700" class="icon" viewBox="0 0 1024 1024" version="1.1" xmlns="http://www.w3.org/2000/svg" p-id="5565" xmlns:xlink="http://www.w3.org/1999/xlink" width="200" height="200"><defs><style type="text/css"></style></defs><path d="M989.312 958.4h-543.36l274.816-274.88 274.944-274.88c8.512-8.576 14.912-17.088 19.2-27.712 2.112-2.176 2.112-6.4 2.112-8.512 0-2.176 2.112-6.4 2.112-8.576 4.288-21.312 0-42.624-12.8-61.76-2.112-4.288-6.4-8.512-10.624-12.8L731.456 25.024c-12.8-12.8-27.712-19.2-44.8-23.424a103.424 103.424 0 0 0-36.16 0 106.176 106.176 0 0 0-40.512 21.312L24 613.12c-32 34.112-32 87.36 0 119.36l223.744 225.856H158.208c-19.2 0-32 14.912-32 32 0 17.024 12.8 31.936 32 31.936h833.28c16.96 0 31.936-14.912 31.936-32-2.176-17.024-17.088-31.936-34.112-31.936zM377.728 378.752l264.256 264.32-294.08 294.016-264.32-264.256 294.144-294.08z" fill="#b4b4b4" p-id="5566"></path></svg>
