<?xml version="1.0" standalone="no"?><!DOCTYPE svg PUBLIC "-//W3C//DTD SVG 1.1//EN" "http://www.w3.org/Graphics/SVG/1.1/DTD/svg11.dtd"><svg t="1563770294101" class="icon" viewBox="0 0 1024 1024" version="1.1" xmlns="http://www.w3.org/2000/svg" p-id="7179" xmlns:xlink="http://www.w3.org/1999/xlink" width="200" height="200"><defs><style type="text/css"></style></defs><path d="M960 1024H704a64 64 0 0 1 0-128h101.76l-211.2-210.56a64 64 0 0 1 90.88-90.88L896 805.76V704a64 64 0 0 1 128 0v256a64 64 0 0 1-64 64z m-640 0H64a64 64 0 0 1-64-64V704a64 64 0 0 1 64-64 64 64 0 0 1 64 64v101.12l210.56-210.56a64 64 0 0 1 90.88 90.88L218.24 896H320a64 64 0 0 1 0 128z m320-576a64 64 0 0 1-45.44-18.56 64 64 0 0 1 0-90.88L805.76 128H704a64 64 0 0 1 0-128h256a64 64 0 0 1 64 64v256a64 64 0 0 1-128 0V218.24l-210.56 211.2A64 64 0 0 1 640 448z m-256 0a64 64 0 0 1-45.44-18.56L128 218.88V320a64 64 0 0 1-64 64 64 64 0 0 1-64-64V64A64 64 0 0 1 64 0h256a64 64 0 0 1 0 128H218.24l211.2 210.56a64 64 0 0 1 0 90.88A64 64 0 0 1 384 448z" fill="#b4b4b4" p-id="7180"></path></svg>
