<?xml version="1.0" standalone="no"?><!DOCTYPE svg PUBLIC "-//W3C//DTD SVG 1.1//EN" "http://www.w3.org/Graphics/SVG/1.1/DTD/svg11.dtd"><svg t="1563769800050" class="icon" viewBox="0 0 1024 1024" version="1.1" xmlns="http://www.w3.org/2000/svg" p-id="3055" xmlns:xlink="http://www.w3.org/1999/xlink" width="200" height="200"><defs><style type="text/css"></style></defs><path d="M1002.0864 923.2896l-207.0016-207.0528a441.856 441.856 0 0 0 39.2192-59.7504 437.3504 437.3504 0 0 0 52.9408-209.2032 438.8352 438.8352 0 1 0-171.9808 348.3136l207.2576 207.2064a56.064 56.064 0 0 0 79.5136 0c22.016-21.9648 22.016-57.5488 0-79.5136zM99.584 447.2832a349.184 349.184 0 0 1 348.8256-348.8256 349.184 349.184 0 0 1 348.8256 348.8256 349.184 349.184 0 0 1-348.8256 348.8256 349.2352 349.2352 0 0 1-348.8256-348.8256z" p-id="3056"></path><path d="M605.952 402.2784H493.4144V289.792a45.056 45.056 0 0 0-90.0096 0v112.5376H290.8672a45.056 45.056 0 0 0 0 90.0096H403.456v112.5376a45.056 45.056 0 0 0 90.0096 0V492.288h112.5376a45.056 45.056 0 0 0 0-90.0096z" p-id="3057"></path></svg>